solid OpenSCAD_Model
  facet normal -1 0 0
    outer loop
      vertex -34 -17 1.6
      vertex -34 17 3.2
      vertex -34 17 1.6
    endloop
  endfacet
  facet normal -1 -0 0
    outer loop
      vertex -34 17 3.2
      vertex -34 -17 1.6
      vertex -34 -17 3.2
    endloop
  endfacet
  facet normal 0 0 1
    outer loop
      vertex 34 17 3.2
      vertex 30 14 3.2
      vertex 34 -17 3.2
    endloop
  endfacet
  facet normal 0 0 1
    outer loop
      vertex 34 17 3.2
      vertex -30 14 3.2
      vertex 30 14 3.2
    endloop
  endfacet
  facet normal 0 0 1
    outer loop
      vertex -30 14 3.2
      vertex -34 17 3.2
      vertex -30 -14 3.2
    endloop
  endfacet
  facet normal -0 0 1
    outer loop
      vertex -34 17 3.2
      vertex -30 14 3.2
      vertex 34 17 3.2
    endloop
  endfacet
  facet normal -0 0 1
    outer loop
      vertex 30 -14 3.2
      vertex 34 -17 3.2
      vertex 30 14 3.2
    endloop
  endfacet
  facet normal -0 0 1
    outer loop
      vertex -30 -14 3.2
      vertex 34 -17 3.2
      vertex 30 -14 3.2
    endloop
  endfacet
  facet normal 0 0 1
    outer loop
      vertex -30 -14 3.2
      vertex -34 -17 3.2
      vertex 34 -17 3.2
    endloop
  endfacet
  facet normal 0 0 1
    outer loop
      vertex -34 -17 3.2
      vertex -30 -14 3.2
      vertex -34 17 3.2
    endloop
  endfacet
  facet normal 1 -0 0
    outer loop
      vertex 34 -17 3.2
      vertex 34 17 1.6
      vertex 34 17 3.2
    endloop
  endfacet
  facet normal 1 0 0
    outer loop
      vertex 34 17 1.6
      vertex 34 -17 3.2
      vertex 34 -17 1.6
    endloop
  endfacet
  facet normal 0 0 -1
    outer loop
      vertex -34 -17 1.6
      vertex 34 17 1.6
      vertex 34 -17 1.6
    endloop
  endfacet
  facet normal -0 0 -1
    outer loop
      vertex 34 17 1.6
      vertex -34 -17 1.6
      vertex -34 17 1.6
    endloop
  endfacet
  facet normal 0 -1 0
    outer loop
      vertex -34 -17 1.6
      vertex 34 -17 3.2
      vertex -34 -17 3.2
    endloop
  endfacet
  facet normal 0 -1 -0
    outer loop
      vertex 34 -17 3.2
      vertex -34 -17 1.6
      vertex 34 -17 1.6
    endloop
  endfacet
  facet normal 0 1 -0
    outer loop
      vertex 34 17 1.6
      vertex -34 17 3.2
      vertex 34 17 3.2
    endloop
  endfacet
  facet normal 0 1 0
    outer loop
      vertex -34 17 3.2
      vertex 34 17 1.6
      vertex -34 17 1.6
    endloop
  endfacet
  facet normal -1 0 0
    outer loop
      vertex -30 -14 3.2
      vertex -30 14 11.2
      vertex -30 14 3.2
    endloop
  endfacet
  facet normal -1 -0 0
    outer loop
      vertex -30 14 11.2
      vertex -30 -14 3.2
      vertex -30 -14 11.2
    endloop
  endfacet
  facet normal -0 0 1
    outer loop
      vertex -30 14 11.2
      vertex 30 -14 11.2
      vertex 30 14 11.2
    endloop
  endfacet
  facet normal 0 0 1
    outer loop
      vertex 30 -14 11.2
      vertex -30 14 11.2
      vertex -30 -14 11.2
    endloop
  endfacet
  facet normal 1 -0 0
    outer loop
      vertex 30 -14 11.2
      vertex 30 14 3.2
      vertex 30 14 11.2
    endloop
  endfacet
  facet normal 1 0 0
    outer loop
      vertex 30 14 3.2
      vertex 30 -14 11.2
      vertex 30 -14 3.2
    endloop
  endfacet
  facet normal 0 1 -0
    outer loop
      vertex 30 14 3.2
      vertex -30 14 11.2
      vertex 30 14 11.2
    endloop
  endfacet
  facet normal 0 1 0
    outer loop
      vertex -30 14 11.2
      vertex 30 14 3.2
      vertex -30 14 3.2
    endloop
  endfacet
  facet normal 0 -1 0
    outer loop
      vertex -30 -14 3.2
      vertex 30 -14 11.2
      vertex -30 -14 11.2
    endloop
  endfacet
  facet normal 0 -1 -0
    outer loop
      vertex 30 -14 11.2
      vertex -30 -14 3.2
      vertex 30 -14 3.2
    endloop
  endfacet
endsolid OpenSCAD_Model
