solid OpenSCAD_Model
  facet normal 0 0.0327311 -0.999464
    outer loop
      vertex 31 0 -43
      vertex 58 2.81233 -42.9079
      vertex 58 0 -43
    endloop
  endfacet
  facet normal 0 0.0327311 -0.999464
    outer loop
      vertex 58 2.81233 -42.9079
      vertex 31 0 -43
      vertex 31 2.81233 -42.9079
    endloop
  endfacet
  facet normal -0 0.0327311 0.999464
    outer loop
      vertex 31 2.81233 42.9079
      vertex 58 0 43
      vertex 58 2.81233 42.9079
    endloop
  endfacet
  facet normal 0 0.0327311 0.999464
    outer loop
      vertex 58 0 43
      vertex 31 2.81233 42.9079
      vertex 31 0 43
    endloop
  endfacet
  facet normal 0 0.999464 -0.0327311
    outer loop
      vertex 58 42.9079 -2.81233
      vertex 31 43 0
      vertex 58 43 0
    endloop
  endfacet
  facet normal 0 0.999464 -0.0327311
    outer loop
      vertex 31 43 0
      vertex 58 42.9079 -2.81233
      vertex 31 42.9079 -2.81233
    endloop
  endfacet
  facet normal 0 -0.999464 0.0327311
    outer loop
      vertex 31 -43 0
      vertex 58 -42.9079 2.81233
      vertex 31 -42.9079 2.81233
    endloop
  endfacet
  facet normal 0 -0.999464 0.0327311
    outer loop
      vertex 58 -42.9079 2.81233
      vertex 31 -43 0
      vertex 58 -43 0
    endloop
  endfacet
  facet normal 0 0.729864 -0.683592
    outer loop
      vertex 58 30.4056 -30.4056
      vertex 31 32.3291 -28.3519
      vertex 58 32.3291 -28.3519
    endloop
  endfacet
  facet normal 0 0.729864 -0.683592
    outer loop
      vertex 31 32.3291 -28.3519
      vertex 58 30.4056 -30.4056
      vertex 31 30.4056 -30.4056
    endloop
  endfacet
  facet normal 0 0.729864 0.683592
    outer loop
      vertex 58 32.3291 28.3519
      vertex 31 30.4056 30.4056
      vertex 58 30.4056 30.4056
    endloop
  endfacet
  facet normal 0 0.729864 0.683592
    outer loop
      vertex 31 30.4056 30.4056
      vertex 58 32.3291 28.3519
      vertex 31 32.3291 28.3519
    endloop
  endfacet
  facet normal 0 0.935903 0.352257
    outer loop
      vertex 58 40.718 13.8219
      vertex 31 39.7268 16.4554
      vertex 58 39.7268 16.4554
    endloop
  endfacet
  facet normal 0 0.935903 0.352257
    outer loop
      vertex 31 39.7268 16.4554
      vertex 58 40.718 13.8219
      vertex 31 40.718 13.8219
    endloop
  endfacet
  facet normal 0 0.412713 -0.910861
    outer loop
      vertex 31 16.4554 -39.7268
      vertex 58 19.0184 -38.5655
      vertex 58 16.4554 -39.7268
    endloop
  endfacet
  facet normal 0 0.412713 -0.910861
    outer loop
      vertex 58 19.0184 -38.5655
      vertex 31 16.4554 -39.7268
      vertex 31 19.0184 -38.5655
    endloop
  endfacet
  facet normal 0 0.910861 -0.412713
    outer loop
      vertex 58 38.5655 -19.0184
      vertex 31 39.7268 -16.4554
      vertex 58 39.7268 -16.4554
    endloop
  endfacet
  facet normal 0 0.910861 -0.412713
    outer loop
      vertex 31 39.7268 -16.4554
      vertex 58 38.5655 -19.0184
      vertex 31 38.5655 -19.0184
    endloop
  endfacet
  facet normal 0 0.8492 -0.528071
    outer loop
      vertex 58 35.7532 -23.8895
      vertex 31 37.2391 -21.5
      vertex 58 37.2391 -21.5
    endloop
  endfacet
  facet normal 0 0.8492 -0.528071
    outer loop
      vertex 31 37.2391 -21.5
      vertex 58 35.7532 -23.8895
      vertex 31 35.7532 -23.8895
    endloop
  endfacet
  facet normal -0 0.412713 0.910861
    outer loop
      vertex 31 19.0184 38.5655
      vertex 58 16.4554 39.7268
      vertex 58 19.0184 38.5655
    endloop
  endfacet
  facet normal 0 0.412713 0.910861
    outer loop
      vertex 58 16.4554 39.7268
      vertex 31 19.0184 38.5655
      vertex 31 16.4554 39.7268
    endloop
  endfacet
  facet normal 0 0.986647 0.162874
    outer loop
      vertex 58 42.6321 5.61263
      vertex 31 42.1738 8.38888
      vertex 58 42.1738 8.38888
    endloop
  endfacet
  facet normal 0 0.986647 0.162874
    outer loop
      vertex 31 42.1738 8.38888
      vertex 58 42.6321 5.61263
      vertex 31 42.6321 5.61263
    endloop
  endfacet
  facet normal 0 -0.352257 -0.935903
    outer loop
      vertex 31 -16.4554 -39.7268
      vertex 58 -13.8219 -40.718
      vertex 58 -16.4554 -39.7268
    endloop
  endfacet
  facet normal -0 -0.352257 -0.935903
    outer loop
      vertex 58 -13.8219 -40.718
      vertex 31 -16.4554 -39.7268
      vertex 31 -13.8219 -40.718
    endloop
  endfacet
  facet normal 0 -0.683592 0.729864
    outer loop
      vertex 31 -28.3519 32.3291
      vertex 58 -30.4056 30.4056
      vertex 58 -28.3519 32.3291
    endloop
  endfacet
  facet normal 0 -0.683592 0.729864
    outer loop
      vertex 58 -30.4056 30.4056
      vertex 31 -28.3519 32.3291
      vertex 31 -30.4056 30.4056
    endloop
  endfacet
  facet normal 0 0.162874 -0.986647
    outer loop
      vertex 31 5.61263 -42.6321
      vertex 58 8.38888 -42.1738
      vertex 58 5.61263 -42.6321
    endloop
  endfacet
  facet normal 0 0.162874 -0.986647
    outer loop
      vertex 58 8.38888 -42.1738
      vertex 31 5.61263 -42.6321
      vertex 31 8.38888 -42.1738
    endloop
  endfacet
  facet normal 0 0.0980152 -0.995185
    outer loop
      vertex 31 2.81233 -42.9079
      vertex 58 5.61263 -42.6321
      vertex 58 2.81233 -42.9079
    endloop
  endfacet
  facet normal 0 0.0980152 -0.995185
    outer loop
      vertex 58 5.61263 -42.6321
      vertex 31 2.81233 -42.9079
      vertex 31 5.61263 -42.6321
    endloop
  endfacet
  facet normal 0 0.582481 -0.812844
    outer loop
      vertex 31 23.8895 -35.7532
      vertex 58 26.1767 -34.1142
      vertex 58 23.8895 -35.7532
    endloop
  endfacet
  facet normal 0 0.582481 -0.812844
    outer loop
      vertex 58 26.1767 -34.1142
      vertex 31 23.8895 -35.7532
      vertex 31 26.1767 -34.1142
    endloop
  endfacet
  facet normal 0 0.634385 -0.773018
    outer loop
      vertex 31 26.1767 -34.1142
      vertex 58 28.3519 -32.3291
      vertex 58 26.1767 -34.1142
    endloop
  endfacet
  facet normal 0 0.634385 -0.773018
    outer loop
      vertex 58 28.3519 -32.3291
      vertex 31 26.1767 -34.1142
      vertex 31 28.3519 -32.3291
    endloop
  endfacet
  facet normal 0 0.471385 -0.881928
    outer loop
      vertex 31 19.0184 -38.5655
      vertex 58 21.5 -37.2391
      vertex 58 19.0184 -38.5655
    endloop
  endfacet
  facet normal 0 0.471385 -0.881928
    outer loop
      vertex 58 21.5 -37.2391
      vertex 31 19.0184 -38.5655
      vertex 31 21.5 -37.2391
    endloop
  endfacet
  facet normal 0 0.973873 -0.227092
    outer loop
      vertex 58 41.5348 -11.1292
      vertex 31 42.1738 -8.38888
      vertex 58 42.1738 -8.38888
    endloop
  endfacet
  facet normal 0 0.973873 -0.227092
    outer loop
      vertex 31 42.1738 -8.38888
      vertex 58 41.5348 -11.1292
      vertex 31 41.5348 -11.1292
    endloop
  endfacet
  facet normal 0 0.956942 -0.290278
    outer loop
      vertex 58 40.718 -13.8219
      vertex 31 41.5348 -11.1292
      vertex 58 41.5348 -11.1292
    endloop
  endfacet
  facet normal 0 0.956942 -0.290278
    outer loop
      vertex 31 41.5348 -11.1292
      vertex 58 40.718 -13.8219
      vertex 31 40.718 -13.8219
    endloop
  endfacet
  facet normal 0 0.986647 -0.162874
    outer loop
      vertex 58 42.1738 -8.38888
      vertex 31 42.6321 -5.61263
      vertex 58 42.6321 -5.61263
    endloop
  endfacet
  facet normal 0 0.986647 -0.162874
    outer loop
      vertex 31 42.6321 -5.61263
      vertex 58 42.1738 -8.38888
      vertex 31 42.1738 -8.38888
    endloop
  endfacet
  facet normal 0 0.881928 -0.471385
    outer loop
      vertex 58 37.2391 -21.5
      vertex 31 38.5655 -19.0184
      vertex 58 38.5655 -19.0184
    endloop
  endfacet
  facet normal 0 0.881928 -0.471385
    outer loop
      vertex 31 38.5655 -19.0184
      vertex 58 37.2391 -21.5
      vertex 31 37.2391 -21.5
    endloop
  endfacet
  facet normal 0 0.812844 -0.582481
    outer loop
      vertex 58 34.1142 -26.1767
      vertex 31 35.7532 -23.8895
      vertex 58 35.7532 -23.8895
    endloop
  endfacet
  facet normal 0 0.812844 -0.582481
    outer loop
      vertex 31 35.7532 -23.8895
      vertex 58 34.1142 -26.1767
      vertex 31 34.1142 -26.1767
    endloop
  endfacet
  facet normal -0 0.227092 0.973873
    outer loop
      vertex 31 11.1292 41.5348
      vertex 58 8.38888 42.1738
      vertex 58 11.1292 41.5348
    endloop
  endfacet
  facet normal 0 0.227092 0.973873
    outer loop
      vertex 58 8.38888 42.1738
      vertex 31 11.1292 41.5348
      vertex 31 8.38888 42.1738
    endloop
  endfacet
  facet normal -0 0.634385 0.773018
    outer loop
      vertex 31 28.3519 32.3291
      vertex 58 26.1767 34.1142
      vertex 58 28.3519 32.3291
    endloop
  endfacet
  facet normal 0 0.634385 0.773018
    outer loop
      vertex 58 26.1767 34.1142
      vertex 31 28.3519 32.3291
      vertex 31 26.1767 34.1142
    endloop
  endfacet
  facet normal -0 0.683592 0.729864
    outer loop
      vertex 31 30.4056 30.4056
      vertex 58 28.3519 32.3291
      vertex 58 30.4056 30.4056
    endloop
  endfacet
  facet normal 0 0.683592 0.729864
    outer loop
      vertex 58 28.3519 32.3291
      vertex 31 30.4056 30.4056
      vertex 31 28.3519 32.3291
    endloop
  endfacet
  facet normal -0 0.528071 0.8492
    outer loop
      vertex 31 23.8895 35.7532
      vertex 58 21.5 37.2391
      vertex 58 23.8895 35.7532
    endloop
  endfacet
  facet normal 0 0.528071 0.8492
    outer loop
      vertex 58 21.5 37.2391
      vertex 31 23.8895 35.7532
      vertex 31 21.5 37.2391
    endloop
  endfacet
  facet normal -0 0.290278 0.956942
    outer loop
      vertex 31 13.8219 40.718
      vertex 58 11.1292 41.5348
      vertex 58 13.8219 40.718
    endloop
  endfacet
  facet normal 0 0.290278 0.956942
    outer loop
      vertex 58 11.1292 41.5348
      vertex 31 13.8219 40.718
      vertex 31 11.1292 41.5348
    endloop
  endfacet
  facet normal -0 0.162874 0.986647
    outer loop
      vertex 31 8.38888 42.1738
      vertex 58 5.61263 42.6321
      vertex 58 8.38888 42.1738
    endloop
  endfacet
  facet normal 0 0.162874 0.986647
    outer loop
      vertex 58 5.61263 42.6321
      vertex 31 8.38888 42.1738
      vertex 31 5.61263 42.6321
    endloop
  endfacet
  facet normal 0 0.8492 0.528071
    outer loop
      vertex 58 37.2391 21.5
      vertex 31 35.7532 23.8895
      vertex 58 35.7532 23.8895
    endloop
  endfacet
  facet normal 0 0.8492 0.528071
    outer loop
      vertex 31 35.7532 23.8895
      vertex 58 37.2391 21.5
      vertex 31 37.2391 21.5
    endloop
  endfacet
  facet normal 0 0.881928 0.471385
    outer loop
      vertex 58 38.5655 19.0184
      vertex 31 37.2391 21.5
      vertex 58 37.2391 21.5
    endloop
  endfacet
  facet normal 0 0.881928 0.471385
    outer loop
      vertex 31 37.2391 21.5
      vertex 58 38.5655 19.0184
      vertex 31 38.5655 19.0184
    endloop
  endfacet
  facet normal 0 0.773018 0.634385
    outer loop
      vertex 58 34.1142 26.1767
      vertex 31 32.3291 28.3519
      vertex 58 32.3291 28.3519
    endloop
  endfacet
  facet normal 0 0.773018 0.634385
    outer loop
      vertex 31 32.3291 28.3519
      vertex 58 34.1142 26.1767
      vertex 31 34.1142 26.1767
    endloop
  endfacet
  facet normal 0 0.973873 0.227092
    outer loop
      vertex 58 42.1738 8.38888
      vertex 31 41.5348 11.1292
      vertex 58 41.5348 11.1292
    endloop
  endfacet
  facet normal 0 0.973873 0.227092
    outer loop
      vertex 31 41.5348 11.1292
      vertex 58 42.1738 8.38888
      vertex 31 42.1738 8.38888
    endloop
  endfacet
  facet normal 0 0.995185 0.0980152
    outer loop
      vertex 58 42.9079 2.81233
      vertex 31 42.6321 5.61263
      vertex 58 42.6321 5.61263
    endloop
  endfacet
  facet normal 0 0.995185 0.0980152
    outer loop
      vertex 31 42.6321 5.61263
      vertex 58 42.9079 2.81233
      vertex 31 42.9079 2.81233
    endloop
  endfacet
  facet normal 0 -0.162874 -0.986647
    outer loop
      vertex 31 -8.38888 -42.1738
      vertex 58 -5.61263 -42.6321
      vertex 58 -8.38888 -42.1738
    endloop
  endfacet
  facet normal -0 -0.162874 -0.986647
    outer loop
      vertex 58 -5.61263 -42.6321
      vertex 31 -8.38888 -42.1738
      vertex 31 -5.61263 -42.6321
    endloop
  endfacet
  facet normal 0 -0.986647 -0.162874
    outer loop
      vertex 31 -42.1738 -8.38888
      vertex 58 -42.6321 -5.61263
      vertex 31 -42.6321 -5.61263
    endloop
  endfacet
  facet normal 0 -0.986647 -0.162874
    outer loop
      vertex 58 -42.6321 -5.61263
      vertex 31 -42.1738 -8.38888
      vertex 58 -42.1738 -8.38888
    endloop
  endfacet
  facet normal 0 -0.773018 -0.634385
    outer loop
      vertex 31 -32.3291 -28.3519
      vertex 58 -34.1142 -26.1767
      vertex 31 -34.1142 -26.1767
    endloop
  endfacet
  facet normal 0 -0.773018 -0.634385
    outer loop
      vertex 58 -34.1142 -26.1767
      vertex 31 -32.3291 -28.3519
      vertex 58 -32.3291 -28.3519
    endloop
  endfacet
  facet normal 0 -0.683592 -0.729864
    outer loop
      vertex 31 -30.4056 -30.4056
      vertex 58 -28.3519 -32.3291
      vertex 58 -30.4056 -30.4056
    endloop
  endfacet
  facet normal -0 -0.683592 -0.729864
    outer loop
      vertex 58 -28.3519 -32.3291
      vertex 31 -30.4056 -30.4056
      vertex 31 -28.3519 -32.3291
    endloop
  endfacet
  facet normal 0 -0.812844 -0.582481
    outer loop
      vertex 31 -34.1142 -26.1767
      vertex 58 -35.7532 -23.8895
      vertex 31 -35.7532 -23.8895
    endloop
  endfacet
  facet normal 0 -0.812844 -0.582481
    outer loop
      vertex 58 -35.7532 -23.8895
      vertex 31 -34.1142 -26.1767
      vertex 58 -34.1142 -26.1767
    endloop
  endfacet
  facet normal 0 -0.881928 -0.471385
    outer loop
      vertex 31 -37.2391 -21.5
      vertex 58 -38.5655 -19.0184
      vertex 31 -38.5655 -19.0184
    endloop
  endfacet
  facet normal 0 -0.881928 -0.471385
    outer loop
      vertex 58 -38.5655 -19.0184
      vertex 31 -37.2391 -21.5
      vertex 58 -37.2391 -21.5
    endloop
  endfacet
  facet normal 0 -0.773018 0.634385
    outer loop
      vertex 31 -34.1142 26.1767
      vertex 58 -32.3291 28.3519
      vertex 31 -32.3291 28.3519
    endloop
  endfacet
  facet normal 0 -0.773018 0.634385
    outer loop
      vertex 58 -32.3291 28.3519
      vertex 31 -34.1142 26.1767
      vertex 58 -34.1142 26.1767
    endloop
  endfacet
  facet normal 0 -0.729864 0.683592
    outer loop
      vertex 31 -32.3291 28.3519
      vertex 58 -30.4056 30.4056
      vertex 31 -30.4056 30.4056
    endloop
  endfacet
  facet normal 0 -0.729864 0.683592
    outer loop
      vertex 58 -30.4056 30.4056
      vertex 31 -32.3291 28.3519
      vertex 58 -32.3291 28.3519
    endloop
  endfacet
  facet normal 0 -0.910861 0.412713
    outer loop
      vertex 31 -39.7268 16.4554
      vertex 58 -38.5655 19.0184
      vertex 31 -38.5655 19.0184
    endloop
  endfacet
  facet normal 0 -0.910861 0.412713
    outer loop
      vertex 58 -38.5655 19.0184
      vertex 31 -39.7268 16.4554
      vertex 58 -39.7268 16.4554
    endloop
  endfacet
  facet normal 0 -0.8492 0.528071
    outer loop
      vertex 31 -37.2391 21.5
      vertex 58 -35.7532 23.8895
      vertex 31 -35.7532 23.8895
    endloop
  endfacet
  facet normal 0 -0.8492 0.528071
    outer loop
      vertex 58 -35.7532 23.8895
      vertex 31 -37.2391 21.5
      vertex 58 -37.2391 21.5
    endloop
  endfacet
  facet normal 0 -0.986647 0.162874
    outer loop
      vertex 31 -42.6321 5.61263
      vertex 58 -42.1738 8.38888
      vertex 31 -42.1738 8.38888
    endloop
  endfacet
  facet normal 0 -0.986647 0.162874
    outer loop
      vertex 58 -42.1738 8.38888
      vertex 31 -42.6321 5.61263
      vertex 58 -42.6321 5.61263
    endloop
  endfacet
  facet normal 0 -0.528071 0.8492
    outer loop
      vertex 31 -21.5 37.2391
      vertex 58 -23.8895 35.7532
      vertex 58 -21.5 37.2391
    endloop
  endfacet
  facet normal 0 -0.528071 0.8492
    outer loop
      vertex 58 -23.8895 35.7532
      vertex 31 -21.5 37.2391
      vertex 31 -23.8895 35.7532
    endloop
  endfacet
  facet normal 0 -0.227092 0.973873
    outer loop
      vertex 31 -8.38888 42.1738
      vertex 58 -11.1292 41.5348
      vertex 58 -8.38888 42.1738
    endloop
  endfacet
  facet normal 0 -0.227092 0.973873
    outer loop
      vertex 58 -11.1292 41.5348
      vertex 31 -8.38888 42.1738
      vertex 31 -11.1292 41.5348
    endloop
  endfacet
  facet normal 0 -0.290278 0.956942
    outer loop
      vertex 31 -11.1292 41.5348
      vertex 58 -13.8219 40.718
      vertex 58 -11.1292 41.5348
    endloop
  endfacet
  facet normal 0 -0.290278 0.956942
    outer loop
      vertex 58 -13.8219 40.718
      vertex 31 -11.1292 41.5348
      vertex 31 -13.8219 40.718
    endloop
  endfacet
  facet normal -1 0 0
    outer loop
      vertex 31 35 10
      vertex 31 43 0
      vertex 31 42.9079 -2.81233
    endloop
  endfacet
  facet normal -1 0 0
    outer loop
      vertex 31 35 10
      vertex 31 42.9079 -2.81233
      vertex 31 42.6321 -5.61263
    endloop
  endfacet
  facet normal -1 0 0
    outer loop
      vertex 31 43 0
      vertex 31 35 10
      vertex 31 42.9079 2.81233
    endloop
  endfacet
  facet normal -1 0 0
    outer loop
      vertex 31 35 -18
      vertex 31 42.6321 -5.61263
      vertex 31 42.1738 -8.38888
    endloop
  endfacet
  facet normal -1 0 0
    outer loop
      vertex 31 42.9079 2.81233
      vertex 31 35 10
      vertex 31 42.6321 5.61263
    endloop
  endfacet
  facet normal -1 0 0
    outer loop
      vertex 31 35 -18
      vertex 31 42.1738 -8.38888
      vertex 31 41.5348 -11.1292
    endloop
  endfacet
  facet normal -1 0 0
    outer loop
      vertex 31 42.6321 5.61263
      vertex 31 35 10
      vertex 31 42.1738 8.38888
    endloop
  endfacet
  facet normal -1 0 0
    outer loop
      vertex 31 35 -18
      vertex 31 41.5348 -11.1292
      vertex 31 40.718 -13.8219
    endloop
  endfacet
  facet normal -1 0 0
    outer loop
      vertex 31 42.1738 8.38888
      vertex 31 35 10
      vertex 31 41.5348 11.1292
    endloop
  endfacet
  facet normal -1 0 0
    outer loop
      vertex 31 35 -18
      vertex 31 40.718 -13.8219
      vertex 31 39.7268 -16.4554
    endloop
  endfacet
  facet normal -1 0 0
    outer loop
      vertex 31 34.8847 11.1705
      vertex 31 41.5348 11.1292
      vertex 31 35 10
    endloop
  endfacet
  facet normal -1 0 0
    outer loop
      vertex 31 35 -18
      vertex 31 39.7268 -16.4554
      vertex 31 38.5655 -19.0184
    endloop
  endfacet
  facet normal -1 0 0
    outer loop
      vertex 31 41.5348 11.1292
      vertex 31 34.8847 11.1705
      vertex 31 40.718 13.8219
    endloop
  endfacet
  facet normal -1 0 0
    outer loop
      vertex 31 34.8847 -19.1705
      vertex 31 38.5655 -19.0184
      vertex 31 37.2391 -21.5
    endloop
  endfacet
  facet normal -1 0 0
    outer loop
      vertex 31 34.5433 12.2961
      vertex 31 40.718 13.8219
      vertex 31 34.8847 11.1705
    endloop
  endfacet
  facet normal -1 0 0
    outer loop
      vertex 31 33.9888 -21.3334
      vertex 31 37.2391 -21.5
      vertex 31 35.7532 -23.8895
    endloop
  endfacet
  facet normal -1 -0 0
    outer loop
      vertex 31 42.6321 -5.61263
      vertex 31 35 -18
      vertex 31 35 10
    endloop
  endfacet
  facet normal -1 -0 0
    outer loop
      vertex 31 40.718 13.8219
      vertex 31 34.5433 12.2961
      vertex 31 39.7268 16.4554
    endloop
  endfacet
  facet normal -1 -0 0
    outer loop
      vertex 31 38.5655 -19.0184
      vertex 31 34.8847 -19.1705
      vertex 31 35 -18
    endloop
  endfacet
  facet normal -1 0 0
    outer loop
      vertex 31 37.2391 -21.5
      vertex 31 34.5433 -20.2961
      vertex 31 34.8847 -19.1705
    endloop
  endfacet
  facet normal -1 0 0
    outer loop
      vertex 31 32.3334 -22.9888
      vertex 31 35.7532 -23.8895
      vertex 31 34.1142 -26.1767
    endloop
  endfacet
  facet normal -1 0 0
    outer loop
      vertex 31 37.2391 -21.5
      vertex 31 33.9888 -21.3334
      vertex 31 34.5433 -20.2961
    endloop
  endfacet
  facet normal -1 0 0
    outer loop
      vertex 31 35.7532 -23.8895
      vertex 31 33.2426 -22.2426
      vertex 31 33.9888 -21.3334
    endloop
  endfacet
  facet normal -1 0 0
    outer loop
      vertex 31 35.7532 -23.8895
      vertex 31 32.3334 -22.9888
      vertex 31 33.2426 -22.2426
    endloop
  endfacet
  facet normal -1 0 0
    outer loop
      vertex 31 31.2961 -23.5433
      vertex 31 34.1142 -26.1767
      vertex 31 32.3291 -28.3519
    endloop
  endfacet
  facet normal -1 0 0
    outer loop
      vertex 31 34.1142 -26.1767
      vertex 31 31.2961 -23.5433
      vertex 31 32.3334 -22.9888
    endloop
  endfacet
  facet normal -1 0 0
    outer loop
      vertex 31 29 -24
      vertex 31 32.3291 -28.3519
      vertex 31 30.4056 -30.4056
    endloop
  endfacet
  facet normal -1 0 0
    outer loop
      vertex 31 32.3291 -28.3519
      vertex 31 30.1705 -23.8847
      vertex 31 31.2961 -23.5433
    endloop
  endfacet
  facet normal -1 0 0
    outer loop
      vertex 31 32.3291 -28.3519
      vertex 31 29 -24
      vertex 31 30.1705 -23.8847
    endloop
  endfacet
  facet normal -1 0 0
    outer loop
      vertex 31 28.3519 -32.3291
      vertex 31 29 -24
      vertex 31 30.4056 -30.4056
    endloop
  endfacet
  facet normal -1 0 0
    outer loop
      vertex 31 26.1767 -34.1142
      vertex 31 29 -24
      vertex 31 28.3519 -32.3291
    endloop
  endfacet
  facet normal -1 0 0
    outer loop
      vertex 31 23.8895 -35.7532
      vertex 31 29 -24
      vertex 31 26.1767 -34.1142
    endloop
  endfacet
  facet normal -1 0 0
    outer loop
      vertex 31 21.5 -37.2391
      vertex 31 29 -24
      vertex 31 23.8895 -35.7532
    endloop
  endfacet
  facet normal -1 0 0
    outer loop
      vertex 31 19.0184 -38.5655
      vertex 31 29 -24
      vertex 31 21.5 -37.2391
    endloop
  endfacet
  facet normal -1 0 0
    outer loop
      vertex 31 16.4554 -39.7268
      vertex 31 29 -24
      vertex 31 19.0184 -38.5655
    endloop
  endfacet
  facet normal -1 0 0
    outer loop
      vertex 31 13.8219 -40.718
      vertex 31 29 -24
      vertex 31 16.4554 -39.7268
    endloop
  endfacet
  facet normal -1 0 0
    outer loop
      vertex 31 11.1292 -41.5348
      vertex 31 29 -24
      vertex 31 13.8219 -40.718
    endloop
  endfacet
  facet normal -1 0 0
    outer loop
      vertex 31 8.38888 -42.1738
      vertex 31 29 -24
      vertex 31 11.1292 -41.5348
    endloop
  endfacet
  facet normal -1 0 0
    outer loop
      vertex 31 5.61263 -42.6321
      vertex 31 29 -24
      vertex 31 8.38888 -42.1738
    endloop
  endfacet
  facet normal -1 0 0
    outer loop
      vertex 31 2.81233 -42.9079
      vertex 31 29 -24
      vertex 31 5.61263 -42.6321
    endloop
  endfacet
  facet normal -1 0 0
    outer loop
      vertex 31 0 -43
      vertex 31 29 -24
      vertex 31 2.81233 -42.9079
    endloop
  endfacet
  facet normal -1 0 0
    outer loop
      vertex 31 -29 -24
      vertex 31 0 -43
      vertex 31 -2.81233 -42.9079
    endloop
  endfacet
  facet normal -1 0 0
    outer loop
      vertex 31 -29 -24
      vertex 31 -2.81233 -42.9079
      vertex 31 -5.61263 -42.6321
    endloop
  endfacet
  facet normal -1 0 0
    outer loop
      vertex 31 -29 -24
      vertex 31 -5.61263 -42.6321
      vertex 31 -8.38888 -42.1738
    endloop
  endfacet
  facet normal -1 0 0
    outer loop
      vertex 31 -29 -24
      vertex 31 -8.38888 -42.1738
      vertex 31 -11.1292 -41.5348
    endloop
  endfacet
  facet normal -1 0 0
    outer loop
      vertex 31 -29 -24
      vertex 31 -11.1292 -41.5348
      vertex 31 -13.8219 -40.718
    endloop
  endfacet
  facet normal -1 0 0
    outer loop
      vertex 31 -29 -24
      vertex 31 -13.8219 -40.718
      vertex 31 -16.4554 -39.7268
    endloop
  endfacet
  facet normal -1 0 0
    outer loop
      vertex 31 -29 -24
      vertex 31 -16.4554 -39.7268
      vertex 31 -19.0184 -38.5655
    endloop
  endfacet
  facet normal -1 0 0
    outer loop
      vertex 31 -29 -24
      vertex 31 -19.0184 -38.5655
      vertex 31 -21.5 -37.2391
    endloop
  endfacet
  facet normal -1 0 0
    outer loop
      vertex 31 -29 -24
      vertex 31 -21.5 -37.2391
      vertex 31 -23.8895 -35.7532
    endloop
  endfacet
  facet normal -1 0 0
    outer loop
      vertex 31 -29 -24
      vertex 31 -23.8895 -35.7532
      vertex 31 -26.1767 -34.1142
    endloop
  endfacet
  facet normal -1 0 0
    outer loop
      vertex 31 -29 -24
      vertex 31 -26.1767 -34.1142
      vertex 31 -28.3519 -32.3291
    endloop
  endfacet
  facet normal -1 0 0
    outer loop
      vertex 31 0 -43
      vertex 31 -29 -24
      vertex 31 29 -24
    endloop
  endfacet
  facet normal -1 0 0
    outer loop
      vertex 31 -30.4056 -30.4056
      vertex 31 -29 -24
      vertex 31 -28.3519 -32.3291
    endloop
  endfacet
  facet normal -1 0 0
    outer loop
      vertex 31 -32.3291 -28.3519
      vertex 31 -29 -24
      vertex 31 -30.4056 -30.4056
    endloop
  endfacet
  facet normal -1 -0 0
    outer loop
      vertex 31 -29 -24
      vertex 31 -32.3291 -28.3519
      vertex 31 -30.1705 -23.8847
    endloop
  endfacet
  facet normal -1 -0 0
    outer loop
      vertex 31 -30.1705 -23.8847
      vertex 31 -32.3291 -28.3519
      vertex 31 -31.2961 -23.5433
    endloop
  endfacet
  facet normal -1 0 0
    outer loop
      vertex 31 -34.1142 -26.1767
      vertex 31 -31.2961 -23.5433
      vertex 31 -32.3291 -28.3519
    endloop
  endfacet
  facet normal -1 -0 0
    outer loop
      vertex 31 -31.2961 -23.5433
      vertex 31 -34.1142 -26.1767
      vertex 31 -32.3334 -22.9888
    endloop
  endfacet
  facet normal -1 0 0
    outer loop
      vertex 31 -35.7532 -23.8895
      vertex 31 -32.3334 -22.9888
      vertex 31 -34.1142 -26.1767
    endloop
  endfacet
  facet normal -1 -0 0
    outer loop
      vertex 31 -32.3334 -22.9888
      vertex 31 -35.7532 -23.8895
      vertex 31 -33.2426 -22.2426
    endloop
  endfacet
  facet normal -1 -0 0
    outer loop
      vertex 31 -33.2426 -22.2426
      vertex 31 -35.7532 -23.8895
      vertex 31 -33.9888 -21.3334
    endloop
  endfacet
  facet normal -1 0 0
    outer loop
      vertex 31 -37.2391 -21.5
      vertex 31 -33.9888 -21.3334
      vertex 31 -35.7532 -23.8895
    endloop
  endfacet
  facet normal -1 0 0
    outer loop
      vertex 31 -38.5655 -19.0184
      vertex 31 -34.8847 -19.1705
      vertex 31 -37.2391 -21.5
    endloop
  endfacet
  facet normal -1 -0 0
    outer loop
      vertex 31 -34.5433 -20.2961
      vertex 31 -37.2391 -21.5
      vertex 31 -34.8847 -19.1705
    endloop
  endfacet
  facet normal -1 -0 0
    outer loop
      vertex 31 -33.9888 -21.3334
      vertex 31 -37.2391 -21.5
      vertex 31 -34.5433 -20.2961
    endloop
  endfacet
  facet normal -1 0 0
    outer loop
      vertex 31 33.9888 13.3334
      vertex 31 39.7268 16.4554
      vertex 31 34.5433 12.2961
    endloop
  endfacet
  facet normal -1 0 0
    outer loop
      vertex 31 33.2426 14.2426
      vertex 31 39.7268 16.4554
      vertex 31 33.9888 13.3334
    endloop
  endfacet
  facet normal -1 -0 0
    outer loop
      vertex 31 39.7268 16.4554
      vertex 31 33.2426 14.2426
      vertex 31 38.5655 19.0184
    endloop
  endfacet
  facet normal -1 0 0
    outer loop
      vertex 31 32.3334 14.9888
      vertex 31 38.5655 19.0184
      vertex 31 33.2426 14.2426
    endloop
  endfacet
  facet normal -1 -0 0
    outer loop
      vertex 31 38.5655 19.0184
      vertex 31 32.3334 14.9888
      vertex 31 37.2391 21.5
    endloop
  endfacet
  facet normal -1 0 0
    outer loop
      vertex 31 31.2961 15.5433
      vertex 31 37.2391 21.5
      vertex 31 32.3334 14.9888
    endloop
  endfacet
  facet normal -1 -0 0
    outer loop
      vertex 31 37.2391 21.5
      vertex 31 31.2961 15.5433
      vertex 31 35.7532 23.8895
    endloop
  endfacet
  facet normal -1 0 0
    outer loop
      vertex 31 30.1705 15.8847
      vertex 31 35.7532 23.8895
      vertex 31 31.2961 15.5433
    endloop
  endfacet
  facet normal -1 -0 0
    outer loop
      vertex 31 35.7532 23.8895
      vertex 31 30.1705 15.8847
      vertex 31 34.1142 26.1767
    endloop
  endfacet
  facet normal -1 0 0
    outer loop
      vertex 31 29 16
      vertex 31 34.1142 26.1767
      vertex 31 30.1705 15.8847
    endloop
  endfacet
  facet normal -1 -0 0
    outer loop
      vertex 31 34.1142 26.1767
      vertex 31 29 16
      vertex 31 32.3291 28.3519
    endloop
  endfacet
  facet normal -1 -0 0
    outer loop
      vertex 31 32.3291 28.3519
      vertex 31 29 16
      vertex 31 30.4056 30.4056
    endloop
  endfacet
  facet normal -1 0 0
    outer loop
      vertex 31 29 16
      vertex 31 28.3519 32.3291
      vertex 31 30.4056 30.4056
    endloop
  endfacet
  facet normal -1 0 0
    outer loop
      vertex 31 29 16
      vertex 31 26.1767 34.1142
      vertex 31 28.3519 32.3291
    endloop
  endfacet
  facet normal -1 0 0
    outer loop
      vertex 31 29 16
      vertex 31 23.8895 35.7532
      vertex 31 26.1767 34.1142
    endloop
  endfacet
  facet normal -1 0 0
    outer loop
      vertex 31 29 16
      vertex 31 21.5 37.2391
      vertex 31 23.8895 35.7532
    endloop
  endfacet
  facet normal -1 0 0
    outer loop
      vertex 31 29 16
      vertex 31 19.0184 38.5655
      vertex 31 21.5 37.2391
    endloop
  endfacet
  facet normal -1 0 0
    outer loop
      vertex 31 29 16
      vertex 31 16.4554 39.7268
      vertex 31 19.0184 38.5655
    endloop
  endfacet
  facet normal -1 0 0
    outer loop
      vertex 31 29 16
      vertex 31 13.8219 40.718
      vertex 31 16.4554 39.7268
    endloop
  endfacet
  facet normal -1 0 0
    outer loop
      vertex 31 29 16
      vertex 31 11.1292 41.5348
      vertex 31 13.8219 40.718
    endloop
  endfacet
  facet normal -1 0 0
    outer loop
      vertex 31 29 16
      vertex 31 8.38888 42.1738
      vertex 31 11.1292 41.5348
    endloop
  endfacet
  facet normal -1 0 0
    outer loop
      vertex 31 29 16
      vertex 31 5.61263 42.6321
      vertex 31 8.38888 42.1738
    endloop
  endfacet
  facet normal -1 0 0
    outer loop
      vertex 31 29 16
      vertex 31 2.81233 42.9079
      vertex 31 5.61263 42.6321
    endloop
  endfacet
  facet normal -1 0 0
    outer loop
      vertex 31 29 16
      vertex 31 0 43
      vertex 31 2.81233 42.9079
    endloop
  endfacet
  facet normal -1 0 0
    outer loop
      vertex 31 -29 16
      vertex 31 0 43
      vertex 31 29 16
    endloop
  endfacet
  facet normal -1 0 0
    outer loop
      vertex 31 0 43
      vertex 31 -29 16
      vertex 31 -2.81233 42.9079
    endloop
  endfacet
  facet normal -1 0 0
    outer loop
      vertex 31 -2.81233 42.9079
      vertex 31 -29 16
      vertex 31 -5.61263 42.6321
    endloop
  endfacet
  facet normal -1 0 0
    outer loop
      vertex 31 -5.61263 42.6321
      vertex 31 -29 16
      vertex 31 -8.38888 42.1738
    endloop
  endfacet
  facet normal -1 0 0
    outer loop
      vertex 31 -8.38888 42.1738
      vertex 31 -29 16
      vertex 31 -11.1292 41.5348
    endloop
  endfacet
  facet normal -1 0 0
    outer loop
      vertex 31 -11.1292 41.5348
      vertex 31 -29 16
      vertex 31 -13.8219 40.718
    endloop
  endfacet
  facet normal -1 0 0
    outer loop
      vertex 31 -13.8219 40.718
      vertex 31 -29 16
      vertex 31 -16.4554 39.7268
    endloop
  endfacet
  facet normal -1 0 0
    outer loop
      vertex 31 -16.4554 39.7268
      vertex 31 -29 16
      vertex 31 -19.0184 38.5655
    endloop
  endfacet
  facet normal -1 0 0
    outer loop
      vertex 31 -19.0184 38.5655
      vertex 31 -29 16
      vertex 31 -21.5 37.2391
    endloop
  endfacet
  facet normal -1 0 0
    outer loop
      vertex 31 -21.5 37.2391
      vertex 31 -29 16
      vertex 31 -23.8895 35.7532
    endloop
  endfacet
  facet normal -1 0 0
    outer loop
      vertex 31 -23.8895 35.7532
      vertex 31 -29 16
      vertex 31 -26.1767 34.1142
    endloop
  endfacet
  facet normal -1 0 0
    outer loop
      vertex 31 -26.1767 34.1142
      vertex 31 -29 16
      vertex 31 -28.3519 32.3291
    endloop
  endfacet
  facet normal -1 0 0
    outer loop
      vertex 31 -34.1142 26.1767
      vertex 31 -29 16
      vertex 31 -30.1705 15.8847
    endloop
  endfacet
  facet normal -1 0 0
    outer loop
      vertex 31 -29 16
      vertex 31 -30.4056 30.4056
      vertex 31 -28.3519 32.3291
    endloop
  endfacet
  facet normal -1 0 0
    outer loop
      vertex 31 -35.7532 23.8895
      vertex 31 -30.1705 15.8847
      vertex 31 -31.2961 15.5433
    endloop
  endfacet
  facet normal -1 0 0
    outer loop
      vertex 31 -29 16
      vertex 31 -32.3291 28.3519
      vertex 31 -30.4056 30.4056
    endloop
  endfacet
  facet normal -1 0 0
    outer loop
      vertex 31 -37.2391 21.5
      vertex 31 -31.2961 15.5433
      vertex 31 -32.3334 14.9888
    endloop
  endfacet
  facet normal -1 0 0
    outer loop
      vertex 31 -38.5655 19.0184
      vertex 31 -32.3334 14.9888
      vertex 31 -33.2426 14.2426
    endloop
  endfacet
  facet normal -1 0 0
    outer loop
      vertex 31 -39.7268 16.4554
      vertex 31 -33.2426 14.2426
      vertex 31 -33.9888 13.3334
    endloop
  endfacet
  facet normal -1 0 0
    outer loop
      vertex 31 -29 16
      vertex 31 -34.1142 26.1767
      vertex 31 -32.3291 28.3519
    endloop
  endfacet
  facet normal -1 0 0
    outer loop
      vertex 31 -39.7268 16.4554
      vertex 31 -33.9888 13.3334
      vertex 31 -34.5433 12.2961
    endloop
  endfacet
  facet normal -1 0 0
    outer loop
      vertex 31 -40.718 13.8219
      vertex 31 -34.5433 12.2961
      vertex 31 -34.8847 11.1705
    endloop
  endfacet
  facet normal -1 0 0
    outer loop
      vertex 31 -41.5348 11.1292
      vertex 31 -34.8847 11.1705
      vertex 31 -35 10
    endloop
  endfacet
  facet normal -1 0 0
    outer loop
      vertex 31 -30.1705 15.8847
      vertex 31 -35.7532 23.8895
      vertex 31 -34.1142 26.1767
    endloop
  endfacet
  facet normal -1 0 0
    outer loop
      vertex 31 -34.8847 -19.1705
      vertex 31 -38.5655 -19.0184
      vertex 31 -35 -18
    endloop
  endfacet
  facet normal -1 0 0
    outer loop
      vertex 31 -39.7268 -16.4554
      vertex 31 -35 -18
      vertex 31 -38.5655 -19.0184
    endloop
  endfacet
  facet normal -1 0 0
    outer loop
      vertex 31 -31.2961 15.5433
      vertex 31 -37.2391 21.5
      vertex 31 -35.7532 23.8895
    endloop
  endfacet
  facet normal -1 0 0
    outer loop
      vertex 31 -40.718 -13.8219
      vertex 31 -35 -18
      vertex 31 -39.7268 -16.4554
    endloop
  endfacet
  facet normal -1 0 0
    outer loop
      vertex 31 -32.3334 14.9888
      vertex 31 -38.5655 19.0184
      vertex 31 -37.2391 21.5
    endloop
  endfacet
  facet normal -1 0 0
    outer loop
      vertex 31 -41.5348 -11.1292
      vertex 31 -35 -18
      vertex 31 -40.718 -13.8219
    endloop
  endfacet
  facet normal -1 0 0
    outer loop
      vertex 31 -33.2426 14.2426
      vertex 31 -39.7268 16.4554
      vertex 31 -38.5655 19.0184
    endloop
  endfacet
  facet normal -1 0 0
    outer loop
      vertex 31 -42.1738 -8.38888
      vertex 31 -35 -18
      vertex 31 -41.5348 -11.1292
    endloop
  endfacet
  facet normal -1 0 0
    outer loop
      vertex 31 -34.5433 12.2961
      vertex 31 -40.718 13.8219
      vertex 31 -39.7268 16.4554
    endloop
  endfacet
  facet normal -1 0 0
    outer loop
      vertex 31 -42.6321 -5.61263
      vertex 31 -35 -18
      vertex 31 -42.1738 -8.38888
    endloop
  endfacet
  facet normal -1 -0 0
    outer loop
      vertex 31 -34.8847 11.1705
      vertex 31 -41.5348 11.1292
      vertex 31 -40.718 13.8219
    endloop
  endfacet
  facet normal -1 0 0
    outer loop
      vertex 31 -35 -18
      vertex 31 -42.6321 -5.61263
      vertex 31 -35 10
    endloop
  endfacet
  facet normal -1 -0 0
    outer loop
      vertex 31 -35 10
      vertex 31 -42.1738 8.38888
      vertex 31 -41.5348 11.1292
    endloop
  endfacet
  facet normal -1 0 0
    outer loop
      vertex 31 -42.9079 -2.81233
      vertex 31 -35 10
      vertex 31 -42.6321 -5.61263
    endloop
  endfacet
  facet normal -1 0 0
    outer loop
      vertex 31 -35 10
      vertex 31 -42.6321 5.61263
      vertex 31 -42.1738 8.38888
    endloop
  endfacet
  facet normal -1 0 0
    outer loop
      vertex 31 -43 0
      vertex 31 -35 10
      vertex 31 -42.9079 -2.81233
    endloop
  endfacet
  facet normal -1 0 0
    outer loop
      vertex 31 -35 10
      vertex 31 -42.9079 2.81233
      vertex 31 -42.6321 5.61263
    endloop
  endfacet
  facet normal -1 0 0
    outer loop
      vertex 31 -35 10
      vertex 31 -43 0
      vertex 31 -42.9079 2.81233
    endloop
  endfacet
  facet normal 0 0.227092 -0.973873
    outer loop
      vertex 31 8.38888 -42.1738
      vertex 58 11.1292 -41.5348
      vertex 58 8.38888 -42.1738
    endloop
  endfacet
  facet normal 0 0.227092 -0.973873
    outer loop
      vertex 58 11.1292 -41.5348
      vertex 31 8.38888 -42.1738
      vertex 31 11.1292 -41.5348
    endloop
  endfacet
  facet normal 0 0.290278 -0.956942
    outer loop
      vertex 31 11.1292 -41.5348
      vertex 58 13.8219 -40.718
      vertex 58 11.1292 -41.5348
    endloop
  endfacet
  facet normal 0 0.290278 -0.956942
    outer loop
      vertex 58 13.8219 -40.718
      vertex 31 11.1292 -41.5348
      vertex 31 13.8219 -40.718
    endloop
  endfacet
  facet normal 0 0.352257 -0.935903
    outer loop
      vertex 31 13.8219 -40.718
      vertex 58 16.4554 -39.7268
      vertex 58 13.8219 -40.718
    endloop
  endfacet
  facet normal 0 0.352257 -0.935903
    outer loop
      vertex 58 16.4554 -39.7268
      vertex 31 13.8219 -40.718
      vertex 31 16.4554 -39.7268
    endloop
  endfacet
  facet normal 0 0.995185 -0.0980152
    outer loop
      vertex 58 42.6321 -5.61263
      vertex 31 42.9079 -2.81233
      vertex 58 42.9079 -2.81233
    endloop
  endfacet
  facet normal 0 0.995185 -0.0980152
    outer loop
      vertex 31 42.9079 -2.81233
      vertex 58 42.6321 -5.61263
      vertex 31 42.6321 -5.61263
    endloop
  endfacet
  facet normal 0 0.773018 -0.634385
    outer loop
      vertex 58 32.3291 -28.3519
      vertex 31 34.1142 -26.1767
      vertex 58 34.1142 -26.1767
    endloop
  endfacet
  facet normal 0 0.773018 -0.634385
    outer loop
      vertex 31 34.1142 -26.1767
      vertex 58 32.3291 -28.3519
      vertex 31 32.3291 -28.3519
    endloop
  endfacet
  facet normal -0 0.582481 0.812844
    outer loop
      vertex 31 26.1767 34.1142
      vertex 58 23.8895 35.7532
      vertex 58 26.1767 34.1142
    endloop
  endfacet
  facet normal 0 0.582481 0.812844
    outer loop
      vertex 58 23.8895 35.7532
      vertex 31 26.1767 34.1142
      vertex 31 23.8895 35.7532
    endloop
  endfacet
  facet normal -0 0.0980152 0.995185
    outer loop
      vertex 31 5.61263 42.6321
      vertex 58 2.81233 42.9079
      vertex 58 5.61263 42.6321
    endloop
  endfacet
  facet normal 0 0.0980152 0.995185
    outer loop
      vertex 58 2.81233 42.9079
      vertex 31 5.61263 42.6321
      vertex 31 2.81233 42.9079
    endloop
  endfacet
  facet normal 1 0 0
    outer loop
      vertex 58 35 10
      vertex 58 43 0
      vertex 58 42.9079 2.81233
    endloop
  endfacet
  facet normal 1 0 0
    outer loop
      vertex 58 35 10
      vertex 58 42.9079 2.81233
      vertex 58 42.6321 5.61263
    endloop
  endfacet
  facet normal 1 0 0
    outer loop
      vertex 58 43 0
      vertex 58 35 10
      vertex 58 42.9079 -2.81233
    endloop
  endfacet
  facet normal 1 0 0
    outer loop
      vertex 58 35 10
      vertex 58 42.6321 5.61263
      vertex 58 42.1738 8.38888
    endloop
  endfacet
  facet normal 1 0 0
    outer loop
      vertex 58 42.9079 -2.81233
      vertex 58 35 10
      vertex 58 42.6321 -5.61263
    endloop
  endfacet
  facet normal 1 -0 0
    outer loop
      vertex 58 35 10
      vertex 58 42.1738 8.38888
      vertex 58 41.5348 11.1292
    endloop
  endfacet
  facet normal 1 0 0
    outer loop
      vertex 58 35 -18
      vertex 58 42.6321 -5.61263
      vertex 58 35 10
    endloop
  endfacet
  facet normal 1 -0 0
    outer loop
      vertex 58 34.8847 11.1705
      vertex 58 41.5348 11.1292
      vertex 58 40.718 13.8219
    endloop
  endfacet
  facet normal 1 0 0
    outer loop
      vertex 58 42.6321 -5.61263
      vertex 58 35 -18
      vertex 58 42.1738 -8.38888
    endloop
  endfacet
  facet normal 1 0 0
    outer loop
      vertex 58 34.5433 12.2961
      vertex 58 40.718 13.8219
      vertex 58 39.7268 16.4554
    endloop
  endfacet
  facet normal 1 0 0
    outer loop
      vertex 58 42.1738 -8.38888
      vertex 58 35 -18
      vertex 58 41.5348 -11.1292
    endloop
  endfacet
  facet normal 1 0 0
    outer loop
      vertex 58 33.2426 14.2426
      vertex 58 39.7268 16.4554
      vertex 58 38.5655 19.0184
    endloop
  endfacet
  facet normal 1 0 0
    outer loop
      vertex 58 41.5348 -11.1292
      vertex 58 35 -18
      vertex 58 40.718 -13.8219
    endloop
  endfacet
  facet normal 1 0 0
    outer loop
      vertex 58 32.3334 14.9888
      vertex 58 38.5655 19.0184
      vertex 58 37.2391 21.5
    endloop
  endfacet
  facet normal 1 0 0
    outer loop
      vertex 58 40.718 -13.8219
      vertex 58 35 -18
      vertex 58 39.7268 -16.4554
    endloop
  endfacet
  facet normal 1 0 0
    outer loop
      vertex 58 31.2961 15.5433
      vertex 58 37.2391 21.5
      vertex 58 35.7532 23.8895
    endloop
  endfacet
  facet normal 1 0 0
    outer loop
      vertex 58 39.7268 -16.4554
      vertex 58 35 -18
      vertex 58 38.5655 -19.0184
    endloop
  endfacet
  facet normal 1 0 0
    outer loop
      vertex 58 34.8847 -19.1705
      vertex 58 38.5655 -19.0184
      vertex 58 35 -18
    endloop
  endfacet
  facet normal 1 0 0
    outer loop
      vertex 58 41.5348 11.1292
      vertex 58 34.8847 11.1705
      vertex 58 35 10
    endloop
  endfacet
  facet normal 1 0 0
    outer loop
      vertex 58 40.718 13.8219
      vertex 58 34.5433 12.2961
      vertex 58 34.8847 11.1705
    endloop
  endfacet
  facet normal 1 0 0
    outer loop
      vertex 58 30.1705 15.8847
      vertex 58 35.7532 23.8895
      vertex 58 34.1142 26.1767
    endloop
  endfacet
  facet normal 1 0 0
    outer loop
      vertex 58 39.7268 16.4554
      vertex 58 33.9888 13.3334
      vertex 58 34.5433 12.2961
    endloop
  endfacet
  facet normal 1 0 0
    outer loop
      vertex 58 39.7268 16.4554
      vertex 58 33.2426 14.2426
      vertex 58 33.9888 13.3334
    endloop
  endfacet
  facet normal 1 0 0
    outer loop
      vertex 58 38.5655 19.0184
      vertex 58 32.3334 14.9888
      vertex 58 33.2426 14.2426
    endloop
  endfacet
  facet normal 1 0 0
    outer loop
      vertex 58 29 16
      vertex 58 34.1142 26.1767
      vertex 58 32.3291 28.3519
    endloop
  endfacet
  facet normal 1 0 0
    outer loop
      vertex 58 37.2391 21.5
      vertex 58 31.2961 15.5433
      vertex 58 32.3334 14.9888
    endloop
  endfacet
  facet normal 1 0 0
    outer loop
      vertex 58 29 16
      vertex 58 32.3291 28.3519
      vertex 58 30.4056 30.4056
    endloop
  endfacet
  facet normal 1 0 0
    outer loop
      vertex 58 35.7532 23.8895
      vertex 58 30.1705 15.8847
      vertex 58 31.2961 15.5433
    endloop
  endfacet
  facet normal 1 0 0
    outer loop
      vertex 58 34.1142 26.1767
      vertex 58 29 16
      vertex 58 30.1705 15.8847
    endloop
  endfacet
  facet normal 1 0 0
    outer loop
      vertex 58 28.3519 32.3291
      vertex 58 29 16
      vertex 58 30.4056 30.4056
    endloop
  endfacet
  facet normal 1 0 0
    outer loop
      vertex 58 26.1767 34.1142
      vertex 58 29 16
      vertex 58 28.3519 32.3291
    endloop
  endfacet
  facet normal 1 0 0
    outer loop
      vertex 58 23.8895 35.7532
      vertex 58 29 16
      vertex 58 26.1767 34.1142
    endloop
  endfacet
  facet normal 1 0 0
    outer loop
      vertex 58 21.5 37.2391
      vertex 58 29 16
      vertex 58 23.8895 35.7532
    endloop
  endfacet
  facet normal 1 0 0
    outer loop
      vertex 58 19.0184 38.5655
      vertex 58 29 16
      vertex 58 21.5 37.2391
    endloop
  endfacet
  facet normal 1 0 0
    outer loop
      vertex 58 16.4554 39.7268
      vertex 58 29 16
      vertex 58 19.0184 38.5655
    endloop
  endfacet
  facet normal 1 0 0
    outer loop
      vertex 58 13.8219 40.718
      vertex 58 29 16
      vertex 58 16.4554 39.7268
    endloop
  endfacet
  facet normal 1 0 0
    outer loop
      vertex 58 11.1292 41.5348
      vertex 58 29 16
      vertex 58 13.8219 40.718
    endloop
  endfacet
  facet normal 1 0 0
    outer loop
      vertex 58 8.38888 42.1738
      vertex 58 29 16
      vertex 58 11.1292 41.5348
    endloop
  endfacet
  facet normal 1 0 0
    outer loop
      vertex 58 5.61263 42.6321
      vertex 58 29 16
      vertex 58 8.38888 42.1738
    endloop
  endfacet
  facet normal 1 0 0
    outer loop
      vertex 58 2.81233 42.9079
      vertex 58 29 16
      vertex 58 5.61263 42.6321
    endloop
  endfacet
  facet normal 1 0 0
    outer loop
      vertex 58 0 43
      vertex 58 29 16
      vertex 58 2.81233 42.9079
    endloop
  endfacet
  facet normal 1 0 0
    outer loop
      vertex 58 -29 16
      vertex 58 0 43
      vertex 58 -2.81233 42.9079
    endloop
  endfacet
  facet normal 1 0 0
    outer loop
      vertex 58 -29 16
      vertex 58 -2.81233 42.9079
      vertex 58 -5.61263 42.6321
    endloop
  endfacet
  facet normal 1 0 0
    outer loop
      vertex 58 -29 16
      vertex 58 -5.61263 42.6321
      vertex 58 -8.38888 42.1738
    endloop
  endfacet
  facet normal 1 0 0
    outer loop
      vertex 58 -29 16
      vertex 58 -8.38888 42.1738
      vertex 58 -11.1292 41.5348
    endloop
  endfacet
  facet normal 1 0 0
    outer loop
      vertex 58 -29 16
      vertex 58 -11.1292 41.5348
      vertex 58 -13.8219 40.718
    endloop
  endfacet
  facet normal 1 0 0
    outer loop
      vertex 58 -29 16
      vertex 58 -13.8219 40.718
      vertex 58 -16.4554 39.7268
    endloop
  endfacet
  facet normal 1 0 0
    outer loop
      vertex 58 -29 16
      vertex 58 -16.4554 39.7268
      vertex 58 -19.0184 38.5655
    endloop
  endfacet
  facet normal 1 0 0
    outer loop
      vertex 58 -29 16
      vertex 58 -19.0184 38.5655
      vertex 58 -21.5 37.2391
    endloop
  endfacet
  facet normal 1 0 0
    outer loop
      vertex 58 -29 16
      vertex 58 -21.5 37.2391
      vertex 58 -23.8895 35.7532
    endloop
  endfacet
  facet normal 1 0 0
    outer loop
      vertex 58 -29 16
      vertex 58 -23.8895 35.7532
      vertex 58 -26.1767 34.1142
    endloop
  endfacet
  facet normal 1 0 0
    outer loop
      vertex 58 -29 16
      vertex 58 -26.1767 34.1142
      vertex 58 -28.3519 32.3291
    endloop
  endfacet
  facet normal 1 0 0
    outer loop
      vertex 58 0 43
      vertex 58 -29 16
      vertex 58 29 16
    endloop
  endfacet
  facet normal 1 -0 0
    outer loop
      vertex 58 -30.4056 30.4056
      vertex 58 -29 16
      vertex 58 -28.3519 32.3291
    endloop
  endfacet
  facet normal 1 -0 0
    outer loop
      vertex 58 -32.3291 28.3519
      vertex 58 -29 16
      vertex 58 -30.4056 30.4056
    endloop
  endfacet
  facet normal 1 -0 0
    outer loop
      vertex 58 -34.1142 26.1767
      vertex 58 -29 16
      vertex 58 -32.3291 28.3519
    endloop
  endfacet
  facet normal 1 0 0
    outer loop
      vertex 58 -29 16
      vertex 58 -34.1142 26.1767
      vertex 58 -30.1705 15.8847
    endloop
  endfacet
  facet normal 1 -0 0
    outer loop
      vertex 58 -35.7532 23.8895
      vertex 58 -30.1705 15.8847
      vertex 58 -34.1142 26.1767
    endloop
  endfacet
  facet normal 1 0 0
    outer loop
      vertex 58 -30.1705 15.8847
      vertex 58 -35.7532 23.8895
      vertex 58 -31.2961 15.5433
    endloop
  endfacet
  facet normal 1 -0 0
    outer loop
      vertex 58 -37.2391 21.5
      vertex 58 -31.2961 15.5433
      vertex 58 -35.7532 23.8895
    endloop
  endfacet
  facet normal 1 0 0
    outer loop
      vertex 58 -31.2961 15.5433
      vertex 58 -37.2391 21.5
      vertex 58 -32.3334 14.9888
    endloop
  endfacet
  facet normal 1 -0 0
    outer loop
      vertex 58 -38.5655 19.0184
      vertex 58 -32.3334 14.9888
      vertex 58 -37.2391 21.5
    endloop
  endfacet
  facet normal 1 0 0
    outer loop
      vertex 58 -32.3334 14.9888
      vertex 58 -38.5655 19.0184
      vertex 58 -33.2426 14.2426
    endloop
  endfacet
  facet normal 1 -0 0
    outer loop
      vertex 58 -39.7268 16.4554
      vertex 58 -33.2426 14.2426
      vertex 58 -38.5655 19.0184
    endloop
  endfacet
  facet normal 1 0 0
    outer loop
      vertex 58 -33.9888 13.3334
      vertex 58 -39.7268 16.4554
      vertex 58 -34.5433 12.2961
    endloop
  endfacet
  facet normal 1 0 0
    outer loop
      vertex 58 -33.2426 14.2426
      vertex 58 -39.7268 16.4554
      vertex 58 -33.9888 13.3334
    endloop
  endfacet
  facet normal 1 0 0
    outer loop
      vertex 58 38.5655 -19.0184
      vertex 58 34.8847 -19.1705
      vertex 58 37.2391 -21.5
    endloop
  endfacet
  facet normal 1 -0 0
    outer loop
      vertex 58 34.5433 -20.2961
      vertex 58 37.2391 -21.5
      vertex 58 34.8847 -19.1705
    endloop
  endfacet
  facet normal 1 -0 0
    outer loop
      vertex 58 33.9888 -21.3334
      vertex 58 37.2391 -21.5
      vertex 58 34.5433 -20.2961
    endloop
  endfacet
  facet normal 1 0 0
    outer loop
      vertex 58 37.2391 -21.5
      vertex 58 33.9888 -21.3334
      vertex 58 35.7532 -23.8895
    endloop
  endfacet
  facet normal 1 -0 0
    outer loop
      vertex 58 33.2426 -22.2426
      vertex 58 35.7532 -23.8895
      vertex 58 33.9888 -21.3334
    endloop
  endfacet
  facet normal 1 -0 0
    outer loop
      vertex 58 32.3334 -22.9888
      vertex 58 35.7532 -23.8895
      vertex 58 33.2426 -22.2426
    endloop
  endfacet
  facet normal 1 0 0
    outer loop
      vertex 58 35.7532 -23.8895
      vertex 58 32.3334 -22.9888
      vertex 58 34.1142 -26.1767
    endloop
  endfacet
  facet normal 1 -0 0
    outer loop
      vertex 58 31.2961 -23.5433
      vertex 58 34.1142 -26.1767
      vertex 58 32.3334 -22.9888
    endloop
  endfacet
  facet normal 1 0 0
    outer loop
      vertex 58 34.1142 -26.1767
      vertex 58 31.2961 -23.5433
      vertex 58 32.3291 -28.3519
    endloop
  endfacet
  facet normal 1 -0 0
    outer loop
      vertex 58 30.1705 -23.8847
      vertex 58 32.3291 -28.3519
      vertex 58 31.2961 -23.5433
    endloop
  endfacet
  facet normal 1 -0 0
    outer loop
      vertex 58 29 -24
      vertex 58 32.3291 -28.3519
      vertex 58 30.1705 -23.8847
    endloop
  endfacet
  facet normal 1 0 0
    outer loop
      vertex 58 32.3291 -28.3519
      vertex 58 29 -24
      vertex 58 30.4056 -30.4056
    endloop
  endfacet
  facet normal 1 0 0
    outer loop
      vertex 58 29 -24
      vertex 58 28.3519 -32.3291
      vertex 58 30.4056 -30.4056
    endloop
  endfacet
  facet normal 1 0 0
    outer loop
      vertex 58 29 -24
      vertex 58 26.1767 -34.1142
      vertex 58 28.3519 -32.3291
    endloop
  endfacet
  facet normal 1 0 0
    outer loop
      vertex 58 29 -24
      vertex 58 23.8895 -35.7532
      vertex 58 26.1767 -34.1142
    endloop
  endfacet
  facet normal 1 0 0
    outer loop
      vertex 58 29 -24
      vertex 58 21.5 -37.2391
      vertex 58 23.8895 -35.7532
    endloop
  endfacet
  facet normal 1 0 0
    outer loop
      vertex 58 29 -24
      vertex 58 19.0184 -38.5655
      vertex 58 21.5 -37.2391
    endloop
  endfacet
  facet normal 1 0 0
    outer loop
      vertex 58 29 -24
      vertex 58 16.4554 -39.7268
      vertex 58 19.0184 -38.5655
    endloop
  endfacet
  facet normal 1 0 0
    outer loop
      vertex 58 29 -24
      vertex 58 13.8219 -40.718
      vertex 58 16.4554 -39.7268
    endloop
  endfacet
  facet normal 1 0 0
    outer loop
      vertex 58 29 -24
      vertex 58 11.1292 -41.5348
      vertex 58 13.8219 -40.718
    endloop
  endfacet
  facet normal 1 0 0
    outer loop
      vertex 58 29 -24
      vertex 58 8.38888 -42.1738
      vertex 58 11.1292 -41.5348
    endloop
  endfacet
  facet normal 1 0 0
    outer loop
      vertex 58 29 -24
      vertex 58 5.61263 -42.6321
      vertex 58 8.38888 -42.1738
    endloop
  endfacet
  facet normal 1 0 0
    outer loop
      vertex 58 29 -24
      vertex 58 2.81233 -42.9079
      vertex 58 5.61263 -42.6321
    endloop
  endfacet
  facet normal 1 0 0
    outer loop
      vertex 58 29 -24
      vertex 58 0 -43
      vertex 58 2.81233 -42.9079
    endloop
  endfacet
  facet normal 1 -0 0
    outer loop
      vertex 58 -29 -24
      vertex 58 0 -43
      vertex 58 29 -24
    endloop
  endfacet
  facet normal 1 0 0
    outer loop
      vertex 58 0 -43
      vertex 58 -29 -24
      vertex 58 -2.81233 -42.9079
    endloop
  endfacet
  facet normal 1 0 0
    outer loop
      vertex 58 -2.81233 -42.9079
      vertex 58 -29 -24
      vertex 58 -5.61263 -42.6321
    endloop
  endfacet
  facet normal 1 0 0
    outer loop
      vertex 58 -5.61263 -42.6321
      vertex 58 -29 -24
      vertex 58 -8.38888 -42.1738
    endloop
  endfacet
  facet normal 1 0 0
    outer loop
      vertex 58 -8.38888 -42.1738
      vertex 58 -29 -24
      vertex 58 -11.1292 -41.5348
    endloop
  endfacet
  facet normal 1 0 0
    outer loop
      vertex 58 -11.1292 -41.5348
      vertex 58 -29 -24
      vertex 58 -13.8219 -40.718
    endloop
  endfacet
  facet normal 1 0 0
    outer loop
      vertex 58 -13.8219 -40.718
      vertex 58 -29 -24
      vertex 58 -16.4554 -39.7268
    endloop
  endfacet
  facet normal 1 0 0
    outer loop
      vertex 58 -16.4554 -39.7268
      vertex 58 -29 -24
      vertex 58 -19.0184 -38.5655
    endloop
  endfacet
  facet normal 1 0 0
    outer loop
      vertex 58 -19.0184 -38.5655
      vertex 58 -29 -24
      vertex 58 -21.5 -37.2391
    endloop
  endfacet
  facet normal 1 0 0
    outer loop
      vertex 58 -21.5 -37.2391
      vertex 58 -29 -24
      vertex 58 -23.8895 -35.7532
    endloop
  endfacet
  facet normal 1 0 0
    outer loop
      vertex 58 -23.8895 -35.7532
      vertex 58 -29 -24
      vertex 58 -26.1767 -34.1142
    endloop
  endfacet
  facet normal 1 0 0
    outer loop
      vertex 58 -26.1767 -34.1142
      vertex 58 -29 -24
      vertex 58 -28.3519 -32.3291
    endloop
  endfacet
  facet normal 1 0 0
    outer loop
      vertex 58 -32.3291 -28.3519
      vertex 58 -29 -24
      vertex 58 -30.1705 -23.8847
    endloop
  endfacet
  facet normal 1 0 0
    outer loop
      vertex 58 -29 -24
      vertex 58 -30.4056 -30.4056
      vertex 58 -28.3519 -32.3291
    endloop
  endfacet
  facet normal 1 0 0
    outer loop
      vertex 58 -32.3291 -28.3519
      vertex 58 -30.1705 -23.8847
      vertex 58 -31.2961 -23.5433
    endloop
  endfacet
  facet normal 1 0 0
    outer loop
      vertex 58 -29 -24
      vertex 58 -32.3291 -28.3519
      vertex 58 -30.4056 -30.4056
    endloop
  endfacet
  facet normal 1 0 0
    outer loop
      vertex 58 -34.1142 -26.1767
      vertex 58 -31.2961 -23.5433
      vertex 58 -32.3334 -22.9888
    endloop
  endfacet
  facet normal 1 0 0
    outer loop
      vertex 58 -35.7532 -23.8895
      vertex 58 -32.3334 -22.9888
      vertex 58 -33.2426 -22.2426
    endloop
  endfacet
  facet normal 1 0 0
    outer loop
      vertex 58 -35.7532 -23.8895
      vertex 58 -33.2426 -22.2426
      vertex 58 -33.9888 -21.3334
    endloop
  endfacet
  facet normal 1 0 0
    outer loop
      vertex 58 -31.2961 -23.5433
      vertex 58 -34.1142 -26.1767
      vertex 58 -32.3291 -28.3519
    endloop
  endfacet
  facet normal 1 0 0
    outer loop
      vertex 58 -37.2391 -21.5
      vertex 58 -33.9888 -21.3334
      vertex 58 -34.5433 -20.2961
    endloop
  endfacet
  facet normal 1 0 0
    outer loop
      vertex 58 -37.2391 -21.5
      vertex 58 -34.5433 -20.2961
      vertex 58 -34.8847 -19.1705
    endloop
  endfacet
  facet normal 1 0 0
    outer loop
      vertex 58 -32.3334 -22.9888
      vertex 58 -35.7532 -23.8895
      vertex 58 -34.1142 -26.1767
    endloop
  endfacet
  facet normal 1 -0 0
    outer loop
      vertex 58 -38.5655 -19.0184
      vertex 58 -34.8847 -19.1705
      vertex 58 -35 -18
    endloop
  endfacet
  facet normal 1 -0 0
    outer loop
      vertex 58 -40.718 13.8219
      vertex 58 -34.5433 12.2961
      vertex 58 -39.7268 16.4554
    endloop
  endfacet
  facet normal 1 0 0
    outer loop
      vertex 58 -34.5433 12.2961
      vertex 58 -40.718 13.8219
      vertex 58 -34.8847 11.1705
    endloop
  endfacet
  facet normal 1 0 0
    outer loop
      vertex 58 -33.9888 -21.3334
      vertex 58 -37.2391 -21.5
      vertex 58 -35.7532 -23.8895
    endloop
  endfacet
  facet normal 1 0 0
    outer loop
      vertex 58 -41.5348 11.1292
      vertex 58 -34.8847 11.1705
      vertex 58 -40.718 13.8219
    endloop
  endfacet
  facet normal 1 0 0
    outer loop
      vertex 58 -34.8847 -19.1705
      vertex 58 -38.5655 -19.0184
      vertex 58 -37.2391 -21.5
    endloop
  endfacet
  facet normal 1 0 0
    outer loop
      vertex 58 -34.8847 11.1705
      vertex 58 -41.5348 11.1292
      vertex 58 -35 10
    endloop
  endfacet
  facet normal 1 0 0
    outer loop
      vertex 58 -35 -18
      vertex 58 -39.7268 -16.4554
      vertex 58 -38.5655 -19.0184
    endloop
  endfacet
  facet normal 1 0 0
    outer loop
      vertex 58 -42.1738 8.38888
      vertex 58 -35 10
      vertex 58 -41.5348 11.1292
    endloop
  endfacet
  facet normal 1 0 0
    outer loop
      vertex 58 -35 -18
      vertex 58 -40.718 -13.8219
      vertex 58 -39.7268 -16.4554
    endloop
  endfacet
  facet normal 1 0 0
    outer loop
      vertex 58 -42.6321 5.61263
      vertex 58 -35 10
      vertex 58 -42.1738 8.38888
    endloop
  endfacet
  facet normal 1 0 0
    outer loop
      vertex 58 -35 -18
      vertex 58 -41.5348 -11.1292
      vertex 58 -40.718 -13.8219
    endloop
  endfacet
  facet normal 1 0 0
    outer loop
      vertex 58 -42.9079 2.81233
      vertex 58 -35 10
      vertex 58 -42.6321 5.61263
    endloop
  endfacet
  facet normal 1 0 0
    outer loop
      vertex 58 -35 -18
      vertex 58 -42.1738 -8.38888
      vertex 58 -41.5348 -11.1292
    endloop
  endfacet
  facet normal 1 0 0
    outer loop
      vertex 58 -43 0
      vertex 58 -35 10
      vertex 58 -42.9079 2.81233
    endloop
  endfacet
  facet normal 1 0 0
    outer loop
      vertex 58 -35 -18
      vertex 58 -42.6321 -5.61263
      vertex 58 -42.1738 -8.38888
    endloop
  endfacet
  facet normal 1 0 -0
    outer loop
      vertex 58 -42.9079 -2.81233
      vertex 58 -35 10
      vertex 58 -43 0
    endloop
  endfacet
  facet normal 1 0 0
    outer loop
      vertex 58 -35 10
      vertex 58 -42.6321 -5.61263
      vertex 58 -35 -18
    endloop
  endfacet
  facet normal 1 0 -0
    outer loop
      vertex 58 -42.6321 -5.61263
      vertex 58 -35 10
      vertex 58 -42.9079 -2.81233
    endloop
  endfacet
  facet normal 0 0.812844 0.582481
    outer loop
      vertex 58 35.7532 23.8895
      vertex 31 34.1142 26.1767
      vertex 58 34.1142 26.1767
    endloop
  endfacet
  facet normal 0 0.812844 0.582481
    outer loop
      vertex 31 34.1142 26.1767
      vertex 58 35.7532 23.8895
      vertex 31 35.7532 23.8895
    endloop
  endfacet
  facet normal 0 0.999464 0.0327311
    outer loop
      vertex 58 43 0
      vertex 31 42.9079 2.81233
      vertex 58 42.9079 2.81233
    endloop
  endfacet
  facet normal 0 0.999464 0.0327311
    outer loop
      vertex 31 42.9079 2.81233
      vertex 58 43 0
      vertex 31 43 0
    endloop
  endfacet
  facet normal 0 -0.0327311 -0.999464
    outer loop
      vertex 31 -2.81233 -42.9079
      vertex 58 0 -43
      vertex 58 -2.81233 -42.9079
    endloop
  endfacet
  facet normal -0 -0.0327311 -0.999464
    outer loop
      vertex 58 0 -43
      vertex 31 -2.81233 -42.9079
      vertex 31 0 -43
    endloop
  endfacet
  facet normal 0 -0.999464 -0.0327311
    outer loop
      vertex 31 -42.9079 -2.81233
      vertex 58 -43 0
      vertex 31 -43 0
    endloop
  endfacet
  facet normal 0 -0.999464 -0.0327311
    outer loop
      vertex 58 -43 0
      vertex 31 -42.9079 -2.81233
      vertex 58 -42.9079 -2.81233
    endloop
  endfacet
  facet normal 0 -0.956942 -0.290278
    outer loop
      vertex 31 -40.718 -13.8219
      vertex 58 -41.5348 -11.1292
      vertex 31 -41.5348 -11.1292
    endloop
  endfacet
  facet normal 0 -0.956942 -0.290278
    outer loop
      vertex 58 -41.5348 -11.1292
      vertex 31 -40.718 -13.8219
      vertex 58 -40.718 -13.8219
    endloop
  endfacet
  facet normal 0 -0.910861 -0.412713
    outer loop
      vertex 31 -38.5655 -19.0184
      vertex 58 -39.7268 -16.4554
      vertex 31 -39.7268 -16.4554
    endloop
  endfacet
  facet normal 0 -0.910861 -0.412713
    outer loop
      vertex 58 -39.7268 -16.4554
      vertex 31 -38.5655 -19.0184
      vertex 58 -38.5655 -19.0184
    endloop
  endfacet
  facet normal 0 -0.935903 -0.352257
    outer loop
      vertex 31 -39.7268 -16.4554
      vertex 58 -40.718 -13.8219
      vertex 31 -40.718 -13.8219
    endloop
  endfacet
  facet normal 0 -0.935903 -0.352257
    outer loop
      vertex 58 -40.718 -13.8219
      vertex 31 -39.7268 -16.4554
      vertex 58 -39.7268 -16.4554
    endloop
  endfacet
  facet normal 0 -0.729864 -0.683592
    outer loop
      vertex 31 -30.4056 -30.4056
      vertex 58 -32.3291 -28.3519
      vertex 31 -32.3291 -28.3519
    endloop
  endfacet
  facet normal 0 -0.729864 -0.683592
    outer loop
      vertex 58 -32.3291 -28.3519
      vertex 31 -30.4056 -30.4056
      vertex 58 -30.4056 -30.4056
    endloop
  endfacet
  facet normal 0 -0.8492 -0.528071
    outer loop
      vertex 31 -35.7532 -23.8895
      vertex 58 -37.2391 -21.5
      vertex 31 -37.2391 -21.5
    endloop
  endfacet
  facet normal 0 -0.8492 -0.528071
    outer loop
      vertex 58 -37.2391 -21.5
      vertex 31 -35.7532 -23.8895
      vertex 58 -35.7532 -23.8895
    endloop
  endfacet
  facet normal 0 -0.528071 -0.8492
    outer loop
      vertex 31 -23.8895 -35.7532
      vertex 58 -21.5 -37.2391
      vertex 58 -23.8895 -35.7532
    endloop
  endfacet
  facet normal -0 -0.528071 -0.8492
    outer loop
      vertex 58 -21.5 -37.2391
      vertex 31 -23.8895 -35.7532
      vertex 31 -21.5 -37.2391
    endloop
  endfacet
  facet normal 0 -0.634385 -0.773018
    outer loop
      vertex 31 -28.3519 -32.3291
      vertex 58 -26.1767 -34.1142
      vertex 58 -28.3519 -32.3291
    endloop
  endfacet
  facet normal -0 -0.634385 -0.773018
    outer loop
      vertex 58 -26.1767 -34.1142
      vertex 31 -28.3519 -32.3291
      vertex 31 -26.1767 -34.1142
    endloop
  endfacet
  facet normal 0 -0.582481 -0.812844
    outer loop
      vertex 31 -26.1767 -34.1142
      vertex 58 -23.8895 -35.7532
      vertex 58 -26.1767 -34.1142
    endloop
  endfacet
  facet normal -0 -0.582481 -0.812844
    outer loop
      vertex 58 -23.8895 -35.7532
      vertex 31 -26.1767 -34.1142
      vertex 31 -23.8895 -35.7532
    endloop
  endfacet
  facet normal 0 -0.471385 -0.881928
    outer loop
      vertex 31 -21.5 -37.2391
      vertex 58 -19.0184 -38.5655
      vertex 58 -21.5 -37.2391
    endloop
  endfacet
  facet normal -0 -0.471385 -0.881928
    outer loop
      vertex 58 -19.0184 -38.5655
      vertex 31 -21.5 -37.2391
      vertex 31 -19.0184 -38.5655
    endloop
  endfacet
  facet normal 0 -0.412713 -0.910861
    outer loop
      vertex 31 -19.0184 -38.5655
      vertex 58 -16.4554 -39.7268
      vertex 58 -19.0184 -38.5655
    endloop
  endfacet
  facet normal -0 -0.412713 -0.910861
    outer loop
      vertex 58 -16.4554 -39.7268
      vertex 31 -19.0184 -38.5655
      vertex 31 -16.4554 -39.7268
    endloop
  endfacet
  facet normal 0 -0.290278 -0.956942
    outer loop
      vertex 31 -13.8219 -40.718
      vertex 58 -11.1292 -41.5348
      vertex 58 -13.8219 -40.718
    endloop
  endfacet
  facet normal -0 -0.290278 -0.956942
    outer loop
      vertex 58 -11.1292 -41.5348
      vertex 31 -13.8219 -40.718
      vertex 31 -11.1292 -41.5348
    endloop
  endfacet
  facet normal 0 -0.0980152 -0.995185
    outer loop
      vertex 31 -5.61263 -42.6321
      vertex 58 -2.81233 -42.9079
      vertex 58 -5.61263 -42.6321
    endloop
  endfacet
  facet normal -0 -0.0980152 -0.995185
    outer loop
      vertex 58 -2.81233 -42.9079
      vertex 31 -5.61263 -42.6321
      vertex 31 -2.81233 -42.9079
    endloop
  endfacet
  facet normal 0 -0.881928 0.471385
    outer loop
      vertex 31 -38.5655 19.0184
      vertex 58 -37.2391 21.5
      vertex 31 -37.2391 21.5
    endloop
  endfacet
  facet normal 0 -0.881928 0.471385
    outer loop
      vertex 58 -37.2391 21.5
      vertex 31 -38.5655 19.0184
      vertex 58 -38.5655 19.0184
    endloop
  endfacet
  facet normal 0 -0.973873 0.227092
    outer loop
      vertex 31 -42.1738 8.38888
      vertex 58 -41.5348 11.1292
      vertex 31 -41.5348 11.1292
    endloop
  endfacet
  facet normal 0 -0.973873 0.227092
    outer loop
      vertex 58 -41.5348 11.1292
      vertex 31 -42.1738 8.38888
      vertex 58 -42.1738 8.38888
    endloop
  endfacet
  facet normal 0 -0.935903 0.352257
    outer loop
      vertex 31 -40.718 13.8219
      vertex 58 -39.7268 16.4554
      vertex 31 -39.7268 16.4554
    endloop
  endfacet
  facet normal 0 -0.935903 0.352257
    outer loop
      vertex 58 -39.7268 16.4554
      vertex 31 -40.718 13.8219
      vertex 58 -40.718 13.8219
    endloop
  endfacet
  facet normal 0 -0.956942 0.290278
    outer loop
      vertex 31 -41.5348 11.1292
      vertex 58 -40.718 13.8219
      vertex 31 -40.718 13.8219
    endloop
  endfacet
  facet normal 0 -0.956942 0.290278
    outer loop
      vertex 58 -40.718 13.8219
      vertex 31 -41.5348 11.1292
      vertex 58 -41.5348 11.1292
    endloop
  endfacet
  facet normal 0 -0.995185 0.0980152
    outer loop
      vertex 31 -42.9079 2.81233
      vertex 58 -42.6321 5.61263
      vertex 31 -42.6321 5.61263
    endloop
  endfacet
  facet normal 0 -0.995185 0.0980152
    outer loop
      vertex 58 -42.6321 5.61263
      vertex 31 -42.9079 2.81233
      vertex 58 -42.9079 2.81233
    endloop
  endfacet
  facet normal 0 -0.412713 0.910861
    outer loop
      vertex 31 -16.4554 39.7268
      vertex 58 -19.0184 38.5655
      vertex 58 -16.4554 39.7268
    endloop
  endfacet
  facet normal 0 -0.412713 0.910861
    outer loop
      vertex 58 -19.0184 38.5655
      vertex 31 -16.4554 39.7268
      vertex 31 -19.0184 38.5655
    endloop
  endfacet
  facet normal 0 -0.471385 0.881928
    outer loop
      vertex 31 -19.0184 38.5655
      vertex 58 -21.5 37.2391
      vertex 58 -19.0184 38.5655
    endloop
  endfacet
  facet normal 0 -0.471385 0.881928
    outer loop
      vertex 58 -21.5 37.2391
      vertex 31 -19.0184 38.5655
      vertex 31 -21.5 37.2391
    endloop
  endfacet
  facet normal 0 -0.582481 0.812844
    outer loop
      vertex 31 -23.8895 35.7532
      vertex 58 -26.1767 34.1142
      vertex 58 -23.8895 35.7532
    endloop
  endfacet
  facet normal 0 -0.582481 0.812844
    outer loop
      vertex 58 -26.1767 34.1142
      vertex 31 -23.8895 35.7532
      vertex 31 -26.1767 34.1142
    endloop
  endfacet
  facet normal 0 -0.352257 0.935903
    outer loop
      vertex 31 -13.8219 40.718
      vertex 58 -16.4554 39.7268
      vertex 58 -13.8219 40.718
    endloop
  endfacet
  facet normal 0 -0.352257 0.935903
    outer loop
      vertex 58 -16.4554 39.7268
      vertex 31 -13.8219 40.718
      vertex 31 -16.4554 39.7268
    endloop
  endfacet
  facet normal 0 -0.162874 0.986647
    outer loop
      vertex 31 -5.61263 42.6321
      vertex 58 -8.38888 42.1738
      vertex 58 -5.61263 42.6321
    endloop
  endfacet
  facet normal 0 -0.162874 0.986647
    outer loop
      vertex 58 -8.38888 42.1738
      vertex 31 -5.61263 42.6321
      vertex 31 -8.38888 42.1738
    endloop
  endfacet
  facet normal 0 -0.0327311 0.999464
    outer loop
      vertex 31 0 43
      vertex 58 -2.81233 42.9079
      vertex 58 0 43
    endloop
  endfacet
  facet normal 0 -0.0327311 0.999464
    outer loop
      vertex 58 -2.81233 42.9079
      vertex 31 0 43
      vertex 31 -2.81233 42.9079
    endloop
  endfacet
  facet normal 0 0.683592 -0.729864
    outer loop
      vertex 31 28.3519 -32.3291
      vertex 58 30.4056 -30.4056
      vertex 58 28.3519 -32.3291
    endloop
  endfacet
  facet normal 0 0.683592 -0.729864
    outer loop
      vertex 58 30.4056 -30.4056
      vertex 31 28.3519 -32.3291
      vertex 31 30.4056 -30.4056
    endloop
  endfacet
  facet normal 0 0.528071 -0.8492
    outer loop
      vertex 31 21.5 -37.2391
      vertex 58 23.8895 -35.7532
      vertex 58 21.5 -37.2391
    endloop
  endfacet
  facet normal 0 0.528071 -0.8492
    outer loop
      vertex 58 23.8895 -35.7532
      vertex 31 21.5 -37.2391
      vertex 31 23.8895 -35.7532
    endloop
  endfacet
  facet normal 0 0.935903 -0.352257
    outer loop
      vertex 58 39.7268 -16.4554
      vertex 31 40.718 -13.8219
      vertex 58 40.718 -13.8219
    endloop
  endfacet
  facet normal 0 0.935903 -0.352257
    outer loop
      vertex 31 40.718 -13.8219
      vertex 58 39.7268 -16.4554
      vertex 31 39.7268 -16.4554
    endloop
  endfacet
  facet normal -0 0.471385 0.881928
    outer loop
      vertex 31 21.5 37.2391
      vertex 58 19.0184 38.5655
      vertex 58 21.5 37.2391
    endloop
  endfacet
  facet normal 0 0.471385 0.881928
    outer loop
      vertex 58 19.0184 38.5655
      vertex 31 21.5 37.2391
      vertex 31 19.0184 38.5655
    endloop
  endfacet
  facet normal -0 0.352257 0.935903
    outer loop
      vertex 31 16.4554 39.7268
      vertex 58 13.8219 40.718
      vertex 58 16.4554 39.7268
    endloop
  endfacet
  facet normal 0 0.352257 0.935903
    outer loop
      vertex 58 13.8219 40.718
      vertex 31 16.4554 39.7268
      vertex 31 13.8219 40.718
    endloop
  endfacet
  facet normal 0 0.910861 0.412713
    outer loop
      vertex 58 39.7268 16.4554
      vertex 31 38.5655 19.0184
      vertex 58 38.5655 19.0184
    endloop
  endfacet
  facet normal 0 0.910861 0.412713
    outer loop
      vertex 31 38.5655 19.0184
      vertex 58 39.7268 16.4554
      vertex 31 39.7268 16.4554
    endloop
  endfacet
  facet normal 0 0.956942 0.290278
    outer loop
      vertex 58 41.5348 11.1292
      vertex 31 40.718 13.8219
      vertex 58 40.718 13.8219
    endloop
  endfacet
  facet normal 0 0.956942 0.290278
    outer loop
      vertex 31 40.718 13.8219
      vertex 58 41.5348 11.1292
      vertex 31 41.5348 11.1292
    endloop
  endfacet
  facet normal 0 -0.995185 -0.0980152
    outer loop
      vertex 31 -42.6321 -5.61263
      vertex 58 -42.9079 -2.81233
      vertex 31 -42.9079 -2.81233
    endloop
  endfacet
  facet normal 0 -0.995185 -0.0980152
    outer loop
      vertex 58 -42.9079 -2.81233
      vertex 31 -42.6321 -5.61263
      vertex 58 -42.6321 -5.61263
    endloop
  endfacet
  facet normal 0 -0.973873 -0.227092
    outer loop
      vertex 31 -41.5348 -11.1292
      vertex 58 -42.1738 -8.38888
      vertex 31 -42.1738 -8.38888
    endloop
  endfacet
  facet normal 0 -0.973873 -0.227092
    outer loop
      vertex 58 -42.1738 -8.38888
      vertex 31 -41.5348 -11.1292
      vertex 58 -41.5348 -11.1292
    endloop
  endfacet
  facet normal 0 -0.227092 -0.973873
    outer loop
      vertex 31 -11.1292 -41.5348
      vertex 58 -8.38888 -42.1738
      vertex 58 -11.1292 -41.5348
    endloop
  endfacet
  facet normal -0 -0.227092 -0.973873
    outer loop
      vertex 58 -8.38888 -42.1738
      vertex 31 -11.1292 -41.5348
      vertex 31 -8.38888 -42.1738
    endloop
  endfacet
  facet normal 0 -0.812844 0.582481
    outer loop
      vertex 31 -35.7532 23.8895
      vertex 58 -34.1142 26.1767
      vertex 31 -34.1142 26.1767
    endloop
  endfacet
  facet normal 0 -0.812844 0.582481
    outer loop
      vertex 58 -34.1142 26.1767
      vertex 31 -35.7532 23.8895
      vertex 58 -35.7532 23.8895
    endloop
  endfacet
  facet normal 0 -0.634385 0.773018
    outer loop
      vertex 31 -26.1767 34.1142
      vertex 58 -28.3519 32.3291
      vertex 58 -26.1767 34.1142
    endloop
  endfacet
  facet normal 0 -0.634385 0.773018
    outer loop
      vertex 58 -28.3519 32.3291
      vertex 31 -26.1767 34.1142
      vertex 31 -28.3519 32.3291
    endloop
  endfacet
  facet normal 0 -0.0980152 0.995185
    outer loop
      vertex 31 -2.81233 42.9079
      vertex 58 -5.61263 42.6321
      vertex 58 -2.81233 42.9079
    endloop
  endfacet
  facet normal 0 -0.0980152 0.995185
    outer loop
      vertex 58 -5.61263 42.6321
      vertex 31 -2.81233 42.9079
      vertex 31 -5.61263 42.6321
    endloop
  endfacet
  facet normal 0 0.471431 -0.881903
    outer loop
      vertex 31 -32.3334 14.9888
      vertex 58 -31.2961 15.5433
      vertex 58 -32.3334 14.9888
    endloop
  endfacet
  facet normal 0 0.471431 -0.881903
    outer loop
      vertex 58 -31.2961 15.5433
      vertex 31 -32.3334 14.9888
      vertex 31 -31.2961 15.5433
    endloop
  endfacet
  facet normal 0 0.634413 -0.772994
    outer loop
      vertex 31 -33.2426 14.2426
      vertex 58 -32.3334 14.9888
      vertex 58 -33.2426 14.2426
    endloop
  endfacet
  facet normal 0 0.634413 -0.772994
    outer loop
      vertex 58 -32.3334 14.9888
      vertex 31 -33.2426 14.2426
      vertex 31 -32.3334 14.9888
    endloop
  endfacet
  facet normal -0 0.471431 0.881903
    outer loop
      vertex 31 -31.2961 -23.5433
      vertex 58 -32.3334 -22.9888
      vertex 58 -31.2961 -23.5433
    endloop
  endfacet
  facet normal 0 0.471431 0.881903
    outer loop
      vertex 58 -32.3334 -22.9888
      vertex 31 -31.2961 -23.5433
      vertex 31 -32.3334 -22.9888
    endloop
  endfacet
  facet normal 0 0.290248 -0.956951
    outer loop
      vertex 31 -31.2961 15.5433
      vertex 58 -30.1705 15.8847
      vertex 58 -31.2961 15.5433
    endloop
  endfacet
  facet normal 0 0.290248 -0.956951
    outer loop
      vertex 58 -30.1705 15.8847
      vertex 31 -31.2961 15.5433
      vertex 31 -30.1705 15.8847
    endloop
  endfacet
  facet normal 0 -0.995183 -0.0980305
    outer loop
      vertex 31 35 10
      vertex 58 34.8847 11.1705
      vertex 31 34.8847 11.1705
    endloop
  endfacet
  facet normal 0 -0.995183 -0.0980305
    outer loop
      vertex 58 34.8847 11.1705
      vertex 31 35 10
      vertex 58 35 10
    endloop
  endfacet
  facet normal 0 0 -1
    outer loop
      vertex 31 -29 16
      vertex 58 29 16
      vertex 58 -29 16
    endloop
  endfacet
  facet normal -0 0 -1
    outer loop
      vertex 58 29 16
      vertex 31 -29 16
      vertex 31 29 16
    endloop
  endfacet
  facet normal 0 0.0980305 -0.995183
    outer loop
      vertex 31 -30.1705 15.8847
      vertex 58 -29 16
      vertex 58 -30.1705 15.8847
    endloop
  endfacet
  facet normal 0 0.0980305 -0.995183
    outer loop
      vertex 58 -29 16
      vertex 31 -30.1705 15.8847
      vertex 31 -29 16
    endloop
  endfacet
  facet normal 0 -0.471431 -0.881903
    outer loop
      vertex 31 31.2961 15.5433
      vertex 58 32.3334 14.9888
      vertex 58 31.2961 15.5433
    endloop
  endfacet
  facet normal -0 -0.471431 -0.881903
    outer loop
      vertex 58 32.3334 14.9888
      vertex 31 31.2961 15.5433
      vertex 31 32.3334 14.9888
    endloop
  endfacet
  facet normal 0 -0.290248 0.956951
    outer loop
      vertex 31 31.2961 -23.5433
      vertex 58 30.1705 -23.8847
      vertex 58 31.2961 -23.5433
    endloop
  endfacet
  facet normal 0 -0.290248 0.956951
    outer loop
      vertex 58 30.1705 -23.8847
      vertex 31 31.2961 -23.5433
      vertex 31 30.1705 -23.8847
    endloop
  endfacet
  facet normal 0 -0.0980305 -0.995183
    outer loop
      vertex 31 29 16
      vertex 58 30.1705 15.8847
      vertex 58 29 16
    endloop
  endfacet
  facet normal -0 -0.0980305 -0.995183
    outer loop
      vertex 58 30.1705 15.8847
      vertex 31 29 16
      vertex 31 30.1705 15.8847
    endloop
  endfacet
  facet normal 0 -1 0
    outer loop
      vertex 31 35 -18
      vertex 58 35 10
      vertex 31 35 10
    endloop
  endfacet
  facet normal 0 -1 -0
    outer loop
      vertex 58 35 10
      vertex 31 35 -18
      vertex 58 35 -18
    endloop
  endfacet
  facet normal 0 -0.290248 -0.956951
    outer loop
      vertex 31 30.1705 15.8847
      vertex 58 31.2961 15.5433
      vertex 58 30.1705 15.8847
    endloop
  endfacet
  facet normal -0 -0.290248 -0.956951
    outer loop
      vertex 58 31.2961 15.5433
      vertex 31 30.1705 15.8847
      vertex 31 31.2961 15.5433
    endloop
  endfacet
  facet normal 0 -0.471431 0.881903
    outer loop
      vertex 31 32.3334 -22.9888
      vertex 58 31.2961 -23.5433
      vertex 58 32.3334 -22.9888
    endloop
  endfacet
  facet normal 0 -0.471431 0.881903
    outer loop
      vertex 58 31.2961 -23.5433
      vertex 31 32.3334 -22.9888
      vertex 31 31.2961 -23.5433
    endloop
  endfacet
  facet normal -0 0.290248 0.956951
    outer loop
      vertex 31 -30.1705 -23.8847
      vertex 58 -31.2961 -23.5433
      vertex 58 -30.1705 -23.8847
    endloop
  endfacet
  facet normal 0 0.290248 0.956951
    outer loop
      vertex 58 -31.2961 -23.5433
      vertex 31 -30.1705 -23.8847
      vertex 31 -31.2961 -23.5433
    endloop
  endfacet
  facet normal 0 -0.772994 0.634413
    outer loop
      vertex 31 33.2426 -22.2426
      vertex 58 33.9888 -21.3334
      vertex 31 33.9888 -21.3334
    endloop
  endfacet
  facet normal 0 -0.772994 0.634413
    outer loop
      vertex 58 33.9888 -21.3334
      vertex 31 33.2426 -22.2426
      vertex 58 33.2426 -22.2426
    endloop
  endfacet
  facet normal 0 -0.881903 0.471431
    outer loop
      vertex 31 33.9888 -21.3334
      vertex 58 34.5433 -20.2961
      vertex 31 34.5433 -20.2961
    endloop
  endfacet
  facet normal 0 -0.881903 0.471431
    outer loop
      vertex 58 34.5433 -20.2961
      vertex 31 33.9888 -21.3334
      vertex 58 33.9888 -21.3334
    endloop
  endfacet
  facet normal 0 -0.995183 0.0980305
    outer loop
      vertex 31 34.8847 -19.1705
      vertex 58 35 -18
      vertex 31 35 -18
    endloop
  endfacet
  facet normal 0 -0.995183 0.0980305
    outer loop
      vertex 58 35 -18
      vertex 31 34.8847 -19.1705
      vertex 58 34.8847 -19.1705
    endloop
  endfacet
  facet normal 0 -0.881903 -0.471431
    outer loop
      vertex 31 34.5433 12.2961
      vertex 58 33.9888 13.3334
      vertex 31 33.9888 13.3334
    endloop
  endfacet
  facet normal 0 -0.881903 -0.471431
    outer loop
      vertex 58 33.9888 13.3334
      vertex 31 34.5433 12.2961
      vertex 58 34.5433 12.2961
    endloop
  endfacet
  facet normal 0 -0.0980305 0.995183
    outer loop
      vertex 31 30.1705 -23.8847
      vertex 58 29 -24
      vertex 58 30.1705 -23.8847
    endloop
  endfacet
  facet normal 0 -0.0980305 0.995183
    outer loop
      vertex 58 29 -24
      vertex 31 30.1705 -23.8847
      vertex 31 29 -24
    endloop
  endfacet
  facet normal -0 0 1
    outer loop
      vertex 31 29 -24
      vertex 58 -29 -24
      vertex 58 29 -24
    endloop
  endfacet
  facet normal 0 0 1
    outer loop
      vertex 58 -29 -24
      vertex 31 29 -24
      vertex 31 -29 -24
    endloop
  endfacet
  facet normal 0 1 -0
    outer loop
      vertex 58 -35 -18
      vertex 31 -35 10
      vertex 58 -35 10
    endloop
  endfacet
  facet normal 0 1 0
    outer loop
      vertex 31 -35 10
      vertex 58 -35 -18
      vertex 31 -35 -18
    endloop
  endfacet
  facet normal 0 0.772994 0.634413
    outer loop
      vertex 58 -33.2426 -22.2426
      vertex 31 -33.9888 -21.3334
      vertex 58 -33.9888 -21.3334
    endloop
  endfacet
  facet normal 0 0.772994 0.634413
    outer loop
      vertex 31 -33.9888 -21.3334
      vertex 58 -33.2426 -22.2426
      vertex 31 -33.2426 -22.2426
    endloop
  endfacet
  facet normal 0 -0.634413 0.772994
    outer loop
      vertex 31 33.2426 -22.2426
      vertex 58 32.3334 -22.9888
      vertex 58 33.2426 -22.2426
    endloop
  endfacet
  facet normal 0 -0.634413 0.772994
    outer loop
      vertex 58 32.3334 -22.9888
      vertex 31 33.2426 -22.2426
      vertex 31 32.3334 -22.9888
    endloop
  endfacet
  facet normal 0 -0.956951 0.290248
    outer loop
      vertex 31 34.5433 -20.2961
      vertex 58 34.8847 -19.1705
      vertex 31 34.8847 -19.1705
    endloop
  endfacet
  facet normal 0 -0.956951 0.290248
    outer loop
      vertex 58 34.8847 -19.1705
      vertex 31 34.5433 -20.2961
      vertex 58 34.5433 -20.2961
    endloop
  endfacet
  facet normal 0 -0.956951 -0.290248
    outer loop
      vertex 31 34.8847 11.1705
      vertex 58 34.5433 12.2961
      vertex 31 34.5433 12.2961
    endloop
  endfacet
  facet normal 0 -0.956951 -0.290248
    outer loop
      vertex 58 34.5433 12.2961
      vertex 31 34.8847 11.1705
      vertex 58 34.8847 11.1705
    endloop
  endfacet
  facet normal 0 0.772994 -0.634413
    outer loop
      vertex 58 -33.9888 13.3334
      vertex 31 -33.2426 14.2426
      vertex 58 -33.2426 14.2426
    endloop
  endfacet
  facet normal 0 0.772994 -0.634413
    outer loop
      vertex 31 -33.2426 14.2426
      vertex 58 -33.9888 13.3334
      vertex 31 -33.9888 13.3334
    endloop
  endfacet
  facet normal 0 0.995183 0.0980305
    outer loop
      vertex 58 -34.8847 -19.1705
      vertex 31 -35 -18
      vertex 58 -35 -18
    endloop
  endfacet
  facet normal 0 0.995183 0.0980305
    outer loop
      vertex 31 -35 -18
      vertex 58 -34.8847 -19.1705
      vertex 31 -34.8847 -19.1705
    endloop
  endfacet
  facet normal 0 0.881903 0.471431
    outer loop
      vertex 58 -33.9888 -21.3334
      vertex 31 -34.5433 -20.2961
      vertex 58 -34.5433 -20.2961
    endloop
  endfacet
  facet normal 0 0.881903 0.471431
    outer loop
      vertex 31 -34.5433 -20.2961
      vertex 58 -33.9888 -21.3334
      vertex 31 -33.9888 -21.3334
    endloop
  endfacet
  facet normal -0 0.634413 0.772994
    outer loop
      vertex 31 -32.3334 -22.9888
      vertex 58 -33.2426 -22.2426
      vertex 58 -32.3334 -22.9888
    endloop
  endfacet
  facet normal 0 0.634413 0.772994
    outer loop
      vertex 58 -33.2426 -22.2426
      vertex 31 -32.3334 -22.9888
      vertex 31 -33.2426 -22.2426
    endloop
  endfacet
  facet normal -0 0.0980305 0.995183
    outer loop
      vertex 31 -29 -24
      vertex 58 -30.1705 -23.8847
      vertex 58 -29 -24
    endloop
  endfacet
  facet normal 0 0.0980305 0.995183
    outer loop
      vertex 58 -30.1705 -23.8847
      vertex 31 -29 -24
      vertex 31 -30.1705 -23.8847
    endloop
  endfacet
  facet normal 0 -0.634413 -0.772994
    outer loop
      vertex 31 32.3334 14.9888
      vertex 58 33.2426 14.2426
      vertex 58 32.3334 14.9888
    endloop
  endfacet
  facet normal -0 -0.634413 -0.772994
    outer loop
      vertex 58 33.2426 14.2426
      vertex 31 32.3334 14.9888
      vertex 31 33.2426 14.2426
    endloop
  endfacet
  facet normal 0 -0.772994 -0.634413
    outer loop
      vertex 31 33.9888 13.3334
      vertex 58 33.2426 14.2426
      vertex 31 33.2426 14.2426
    endloop
  endfacet
  facet normal 0 -0.772994 -0.634413
    outer loop
      vertex 58 33.2426 14.2426
      vertex 31 33.9888 13.3334
      vertex 58 33.9888 13.3334
    endloop
  endfacet
  facet normal 0 0.881903 -0.471431
    outer loop
      vertex 58 -34.5433 12.2961
      vertex 31 -33.9888 13.3334
      vertex 58 -33.9888 13.3334
    endloop
  endfacet
  facet normal 0 0.881903 -0.471431
    outer loop
      vertex 31 -33.9888 13.3334
      vertex 58 -34.5433 12.2961
      vertex 31 -34.5433 12.2961
    endloop
  endfacet
  facet normal 0 0.956951 -0.290248
    outer loop
      vertex 58 -34.8847 11.1705
      vertex 31 -34.5433 12.2961
      vertex 58 -34.5433 12.2961
    endloop
  endfacet
  facet normal 0 0.956951 -0.290248
    outer loop
      vertex 31 -34.5433 12.2961
      vertex 58 -34.8847 11.1705
      vertex 31 -34.8847 11.1705
    endloop
  endfacet
  facet normal 0 0.995183 -0.0980305
    outer loop
      vertex 58 -35 10
      vertex 31 -34.8847 11.1705
      vertex 58 -34.8847 11.1705
    endloop
  endfacet
  facet normal 0 0.995183 -0.0980305
    outer loop
      vertex 31 -34.8847 11.1705
      vertex 58 -35 10
      vertex 31 -35 10
    endloop
  endfacet
  facet normal 0 0.956951 0.290248
    outer loop
      vertex 58 -34.5433 -20.2961
      vertex 31 -34.8847 -19.1705
      vertex 58 -34.8847 -19.1705
    endloop
  endfacet
  facet normal 0 0.956951 0.290248
    outer loop
      vertex 31 -34.8847 -19.1705
      vertex 58 -34.5433 -20.2961
      vertex 31 -34.5433 -20.2961
    endloop
  endfacet
endsolid OpenSCAD_Model
