solid OpenSCAD_Model
  facet normal -0 0 1
    outer loop
      vertex -27.5 11 -28.6
      vertex 27.5 -11 -28.6
      vertex 27.5 11 -28.6
    endloop
  endfacet
  facet normal 0 0 1
    outer loop
      vertex 27.5 -11 -28.6
      vertex -27.5 11 -28.6
      vertex -27.5 -11 -28.6
    endloop
  endfacet
  facet normal 0 0 -1
    outer loop
      vertex -27.5 -11 -42.6
      vertex 27.5 11 -42.6
      vertex 27.5 -11 -42.6
    endloop
  endfacet
  facet normal -0 0 -1
    outer loop
      vertex 27.5 11 -42.6
      vertex -27.5 -11 -42.6
      vertex -27.5 11 -42.6
    endloop
  endfacet
  facet normal 0 -1 0
    outer loop
      vertex -27.5 -11 -42.6
      vertex 27.5 -11 -28.6
      vertex -27.5 -11 -28.6
    endloop
  endfacet
  facet normal 0 -1 -0
    outer loop
      vertex 27.5 -11 -28.6
      vertex -27.5 -11 -42.6
      vertex 27.5 -11 -42.6
    endloop
  endfacet
  facet normal 1 -0 0
    outer loop
      vertex 27.5 -11 -28.6
      vertex 27.5 11 -42.6
      vertex 27.5 11 -28.6
    endloop
  endfacet
  facet normal 1 0 0
    outer loop
      vertex 27.5 11 -42.6
      vertex 27.5 -11 -28.6
      vertex 27.5 -11 -42.6
    endloop
  endfacet
  facet normal 0 1 -0
    outer loop
      vertex 27.5 11 -42.6
      vertex -27.5 11 -28.6
      vertex 27.5 11 -28.6
    endloop
  endfacet
  facet normal 0 1 0
    outer loop
      vertex -27.5 11 -28.6
      vertex 27.5 11 -42.6
      vertex -27.5 11 -42.6
    endloop
  endfacet
  facet normal -1 0 0
    outer loop
      vertex -27.5 -11 -42.6
      vertex -27.5 11 -28.6
      vertex -27.5 11 -42.6
    endloop
  endfacet
  facet normal -1 -0 0
    outer loop
      vertex -27.5 11 -28.6
      vertex -27.5 -11 -42.6
      vertex -27.5 -11 -28.6
    endloop
  endfacet
endsolid OpenSCAD_Model
