solid OpenSCAD_Model
  facet normal -1 0 0
    outer loop
      vertex -45 -6 34
      vertex -45 6 36
      vertex -45 6 34
    endloop
  endfacet
  facet normal -1 -0 0
    outer loop
      vertex -45 6 36
      vertex -45 -6 34
      vertex -45 -6 36
    endloop
  endfacet
  facet normal -0 0 1
    outer loop
      vertex -45 6 36
      vertex 18 -6 36
      vertex 18 6 36
    endloop
  endfacet
  facet normal 0 0 1
    outer loop
      vertex 18 -6 36
      vertex -45 6 36
      vertex -45 -6 36
    endloop
  endfacet
  facet normal 0 1 -0
    outer loop
      vertex 18 6 34
      vertex -45 6 36
      vertex 18 6 36
    endloop
  endfacet
  facet normal 0 1 0
    outer loop
      vertex -45 6 36
      vertex 18 6 34
      vertex -45 6 34
    endloop
  endfacet
  facet normal 0 0 -1
    outer loop
      vertex -45 -6 34
      vertex 18 6 34
      vertex 18 -6 34
    endloop
  endfacet
  facet normal -0 0 -1
    outer loop
      vertex 18 6 34
      vertex -45 -6 34
      vertex -45 6 34
    endloop
  endfacet
  facet normal 0 -1 0
    outer loop
      vertex -45 -6 34
      vertex 18 -6 36
      vertex -45 -6 36
    endloop
  endfacet
  facet normal 0 -1 -0
    outer loop
      vertex 18 -6 36
      vertex -45 -6 34
      vertex 18 -6 34
    endloop
  endfacet
  facet normal -1 0 0
    outer loop
      vertex 18 6 36
      vertex 18 12.5 33
      vertex 18 6 34
    endloop
  endfacet
  facet normal -1 0 0
    outer loop
      vertex 18 12.5 33
      vertex 18 -6 34
      vertex 18 6 34
    endloop
  endfacet
  facet normal -1 -0 0
    outer loop
      vertex 18 -6 34
      vertex 18 -12.5 33
      vertex 18 -6 36
    endloop
  endfacet
  facet normal -1 0 0
    outer loop
      vertex 18 -12.5 33
      vertex 18 -6 34
      vertex 18 12.5 33
    endloop
  endfacet
  facet normal -1 0 0
    outer loop
      vertex 18 12.5 33
      vertex 18 6 36
      vertex 18 12.5 40
    endloop
  endfacet
  facet normal -1 0 0
    outer loop
      vertex 18 -6 36
      vertex 18 12.5 40
      vertex 18 6 36
    endloop
  endfacet
  facet normal -1 0 0
    outer loop
      vertex 18 -6 36
      vertex 18 -12.5 40
      vertex 18 12.5 40
    endloop
  endfacet
  facet normal -1 0 0
    outer loop
      vertex 18 -12.5 40
      vertex 18 -6 36
      vertex 18 -12.5 33
    endloop
  endfacet
  facet normal -0 0 1
    outer loop
      vertex 18 12.5 40
      vertex 43 -12.5 40
      vertex 43 12.5 40
    endloop
  endfacet
  facet normal 0 0 1
    outer loop
      vertex 43 -12.5 40
      vertex 18 12.5 40
      vertex 18 -12.5 40
    endloop
  endfacet
  facet normal 1 -0 0
    outer loop
      vertex 43 -12.5 40
      vertex 43 12.5 33
      vertex 43 12.5 40
    endloop
  endfacet
  facet normal 1 0 0
    outer loop
      vertex 43 12.5 33
      vertex 43 -12.5 40
      vertex 43 -12.5 33
    endloop
  endfacet
  facet normal 0 1 -0
    outer loop
      vertex 43 12.5 33
      vertex 18 12.5 40
      vertex 43 12.5 40
    endloop
  endfacet
  facet normal 0 1 0
    outer loop
      vertex 18 12.5 40
      vertex 43 12.5 33
      vertex 18 12.5 33
    endloop
  endfacet
  facet normal 0 0 -1
    outer loop
      vertex 18 -12.5 33
      vertex 43 12.5 33
      vertex 43 -12.5 33
    endloop
  endfacet
  facet normal -0 0 -1
    outer loop
      vertex 43 12.5 33
      vertex 18 -12.5 33
      vertex 18 12.5 33
    endloop
  endfacet
  facet normal 0 -1 0
    outer loop
      vertex 18 -12.5 33
      vertex 43 -12.5 40
      vertex 18 -12.5 40
    endloop
  endfacet
  facet normal 0 -1 -0
    outer loop
      vertex 43 -12.5 40
      vertex 18 -12.5 33
      vertex 43 -12.5 33
    endloop
  endfacet
endsolid OpenSCAD_Model
