solid OpenSCAD_Model
  facet normal -1 0 0
    outer loop
      vertex -29.9 11.5433 -43.0803
      vertex -29.9 13.4 -22.5
      vertex -29.9 13.4 -42.5303
    endloop
  endfacet
  facet normal -1 0 0
    outer loop
      vertex -29.9 9.27286 -43.6254
      vertex -29.9 13.4 -22.5
      vertex -29.9 11.5433 -43.0803
    endloop
  endfacet
  facet normal -1 0 0
    outer loop
      vertex -29.9 6.97698 -44.0509
      vertex -29.9 13.4 -22.5
      vertex -29.9 9.27286 -43.6254
    endloop
  endfacet
  facet normal -1 0 0
    outer loop
      vertex -29.9 4.66197 -44.3557
      vertex -29.9 13.4 -22.5
      vertex -29.9 6.97698 -44.0509
    endloop
  endfacet
  facet normal -1 0 0
    outer loop
      vertex -29.9 2.33418 -44.5389
      vertex -29.9 13.4 -22.5
      vertex -29.9 4.66197 -44.3557
    endloop
  endfacet
  facet normal -1 0 0
    outer loop
      vertex -29.9 0 -44.6
      vertex -29.9 13.4 -22.5
      vertex -29.9 2.33418 -44.5389
    endloop
  endfacet
  facet normal -1 0 0
    outer loop
      vertex -29.9 -13.4 -22.5
      vertex -29.9 0 -44.6
      vertex -29.9 -2.33418 -44.5389
    endloop
  endfacet
  facet normal -1 0 0
    outer loop
      vertex -29.9 -13.4 -22.5
      vertex -29.9 -2.33418 -44.5389
      vertex -29.9 -4.66197 -44.3557
    endloop
  endfacet
  facet normal -1 0 0
    outer loop
      vertex -29.9 -13.4 -22.5
      vertex -29.9 -4.66197 -44.3557
      vertex -29.9 -6.97698 -44.0509
    endloop
  endfacet
  facet normal -1 0 0
    outer loop
      vertex -29.9 -13.4 -22.5
      vertex -29.9 -6.97698 -44.0509
      vertex -29.9 -9.27286 -43.6254
    endloop
  endfacet
  facet normal -1 0 0
    outer loop
      vertex -29.9 -13.4 -22.5
      vertex -29.9 -9.27286 -43.6254
      vertex -29.9 -11.5433 -43.0803
    endloop
  endfacet
  facet normal -1 0 0
    outer loop
      vertex -29.9 -13.4 -22.5
      vertex -29.9 -11.5433 -43.0803
      vertex -29.9 -13.4 -42.5303
    endloop
  endfacet
  facet normal -1 0 0
    outer loop
      vertex -29.9 0 -44.6
      vertex -29.9 -13.4 -22.5
      vertex -29.9 13.4 -22.5
    endloop
  endfacet
  facet normal 0 0 1
    outer loop
      vertex 29.9 13.4 -22.5
      vertex 27.5 11 -22.5
      vertex 29.9 -13.4 -22.5
    endloop
  endfacet
  facet normal 0 0 1
    outer loop
      vertex 29.9 13.4 -22.5
      vertex -27.5 11 -22.5
      vertex 27.5 11 -22.5
    endloop
  endfacet
  facet normal 0 0 1
    outer loop
      vertex -27.5 11 -22.5
      vertex -29.9 13.4 -22.5
      vertex -27.5 -11 -22.5
    endloop
  endfacet
  facet normal -0 0 1
    outer loop
      vertex -29.9 13.4 -22.5
      vertex -27.5 11 -22.5
      vertex 29.9 13.4 -22.5
    endloop
  endfacet
  facet normal -0 0 1
    outer loop
      vertex 27.5 -11 -22.5
      vertex 29.9 -13.4 -22.5
      vertex 27.5 11 -22.5
    endloop
  endfacet
  facet normal -0 0 1
    outer loop
      vertex -27.5 -11 -22.5
      vertex 29.9 -13.4 -22.5
      vertex 27.5 -11 -22.5
    endloop
  endfacet
  facet normal 0 0 1
    outer loop
      vertex -27.5 -11 -22.5
      vertex -29.9 -13.4 -22.5
      vertex 29.9 -13.4 -22.5
    endloop
  endfacet
  facet normal 0 0 1
    outer loop
      vertex -29.9 -13.4 -22.5
      vertex -27.5 -11 -22.5
      vertex -29.9 13.4 -22.5
    endloop
  endfacet
  facet normal 1 0 0
    outer loop
      vertex 29.9 13.4 -22.5
      vertex 29.9 11.5433 -43.0803
      vertex 29.9 13.4 -42.5303
    endloop
  endfacet
  facet normal 1 0 0
    outer loop
      vertex 29.9 13.4 -22.5
      vertex 29.9 9.27286 -43.6254
      vertex 29.9 11.5433 -43.0803
    endloop
  endfacet
  facet normal 1 0 0
    outer loop
      vertex 29.9 13.4 -22.5
      vertex 29.9 6.97698 -44.0509
      vertex 29.9 9.27286 -43.6254
    endloop
  endfacet
  facet normal 1 0 0
    outer loop
      vertex 29.9 13.4 -22.5
      vertex 29.9 4.66197 -44.3557
      vertex 29.9 6.97698 -44.0509
    endloop
  endfacet
  facet normal 1 0 0
    outer loop
      vertex 29.9 13.4 -22.5
      vertex 29.9 2.33418 -44.5389
      vertex 29.9 4.66197 -44.3557
    endloop
  endfacet
  facet normal 1 0 0
    outer loop
      vertex 29.9 13.4 -22.5
      vertex 29.9 0 -44.6
      vertex 29.9 2.33418 -44.5389
    endloop
  endfacet
  facet normal 1 -0 0
    outer loop
      vertex 29.9 -13.4 -22.5
      vertex 29.9 0 -44.6
      vertex 29.9 13.4 -22.5
    endloop
  endfacet
  facet normal 1 0 0
    outer loop
      vertex 29.9 0 -44.6
      vertex 29.9 -13.4 -22.5
      vertex 29.9 -2.33418 -44.5389
    endloop
  endfacet
  facet normal 1 0 0
    outer loop
      vertex 29.9 -2.33418 -44.5389
      vertex 29.9 -13.4 -22.5
      vertex 29.9 -4.66197 -44.3557
    endloop
  endfacet
  facet normal 1 0 0
    outer loop
      vertex 29.9 -4.66197 -44.3557
      vertex 29.9 -13.4 -22.5
      vertex 29.9 -6.97698 -44.0509
    endloop
  endfacet
  facet normal 1 0 0
    outer loop
      vertex 29.9 -6.97698 -44.0509
      vertex 29.9 -13.4 -22.5
      vertex 29.9 -9.27286 -43.6254
    endloop
  endfacet
  facet normal 1 0 0
    outer loop
      vertex 29.9 -9.27286 -43.6254
      vertex 29.9 -13.4 -22.5
      vertex 29.9 -11.5433 -43.0803
    endloop
  endfacet
  facet normal 1 0 0
    outer loop
      vertex 29.9 -11.5433 -43.0803
      vertex 29.9 -13.4 -22.5
      vertex 29.9 -13.4 -42.5303
    endloop
  endfacet
  facet normal 0 1 -0
    outer loop
      vertex 29.9 13.4 -42.5303
      vertex -29.9 13.4 -22.5
      vertex 29.9 13.4 -22.5
    endloop
  endfacet
  facet normal 0 1 0
    outer loop
      vertex -29.9 13.4 -22.5
      vertex 29.9 13.4 -42.5303
      vertex -29.9 13.4 -42.5303
    endloop
  endfacet
  facet normal 0 -1 0
    outer loop
      vertex -29.9 -13.4 -42.5303
      vertex 29.9 -13.4 -22.5
      vertex -29.9 -13.4 -22.5
    endloop
  endfacet
  facet normal 0 -1 -0
    outer loop
      vertex 29.9 -13.4 -22.5
      vertex -29.9 -13.4 -42.5303
      vertex 29.9 -13.4 -42.5303
    endloop
  endfacet
  facet normal 0 0.0261784 -0.999657
    outer loop
      vertex 20.8747 0.465874 -44.5878
      vertex 29.9 0 -44.6
      vertex 20.936 0 -44.6
    endloop
  endfacet
  facet normal -5.73914e-07 0.0261673 -0.999658
    outer loop
      vertex 29.9 0 -44.6
      vertex 20.8747 0.465874 -44.5878
      vertex 29.9 2.33418 -44.5389
    endloop
  endfacet
  facet normal -1.64314e-05 0.0262438 -0.999656
    outer loop
      vertex 20.6948 0.9 -44.5764
      vertex 29.9 2.33418 -44.5389
      vertex 20.8747 0.465874 -44.5878
    endloop
  endfacet
  facet normal 1.77147e-05 0.0260248 -0.999661
    outer loop
      vertex 20.4088 1.27279 -44.5667
      vertex 29.9 2.33418 -44.5389
      vertex 20.6948 0.9 -44.5764
    endloop
  endfacet
  facet normal -2.55703e-06 0.0262059 -0.999657
    outer loop
      vertex 20.036 1.55885 -44.5592
      vertex 29.9 2.33418 -44.5389
      vertex 20.4088 1.27279 -44.5667
    endloop
  endfacet
  facet normal 2.98195e-06 0.0261355 -0.999658
    outer loop
      vertex 19.6019 1.73867 -44.5545
      vertex 29.9 2.33418 -44.5389
      vertex 20.036 1.55885 -44.5592
    endloop
  endfacet
  facet normal 4.32401e-06 0.0261123 -0.999659
    outer loop
      vertex 19.136 1.8 -44.5529
      vertex 29.9 2.33418 -44.5389
      vertex 19.6019 1.73867 -44.5545
    endloop
  endfacet
  facet normal 0 0.0261784 -0.999657
    outer loop
      vertex -17.336 0 -44.6
      vertex 17.3973 0.465874 -44.5878
      vertex 17.336 0 -44.6
    endloop
  endfacet
  facet normal 0 0.0261784 -0.999657
    outer loop
      vertex -17.3973 0.465874 -44.5878
      vertex 17.3973 0.465874 -44.5878
      vertex -17.336 0 -44.6
    endloop
  endfacet
  facet normal 0 0.0262506 -0.999655
    outer loop
      vertex 17.3973 0.465874 -44.5878
      vertex -17.3973 0.465874 -44.5878
      vertex 17.5772 0.9 -44.5764
    endloop
  endfacet
  facet normal 0 0.0262506 -0.999655
    outer loop
      vertex -17.5772 0.9 -44.5764
      vertex 17.5772 0.9 -44.5764
      vertex -17.3973 0.465874 -44.5878
    endloop
  endfacet
  facet normal 0 0.0260112 -0.999662
    outer loop
      vertex 17.5772 0.9 -44.5764
      vertex -17.5772 0.9 -44.5764
      vertex 17.8632 1.27279 -44.5667
    endloop
  endfacet
  facet normal 0 0.0260112 -0.999662
    outer loop
      vertex -17.8632 1.27279 -44.5667
      vertex 17.8632 1.27279 -44.5667
      vertex -17.5772 0.9 -44.5764
    endloop
  endfacet
  facet normal 0 0.0262093 -0.999656
    outer loop
      vertex 17.8632 1.27279 -44.5667
      vertex -17.8632 1.27279 -44.5667
      vertex 18.236 1.55885 -44.5592
    endloop
  endfacet
  facet normal 0 0.0262093 -0.999656
    outer loop
      vertex -18.236 1.55885 -44.5592
      vertex 18.236 1.55885 -44.5592
      vertex -17.8632 1.27279 -44.5667
    endloop
  endfacet
  facet normal 0 0.0261283 -0.999659
    outer loop
      vertex 18.236 1.55885 -44.5592
      vertex -18.236 1.55885 -44.5592
      vertex 18.6701 1.73867 -44.5545
    endloop
  endfacet
  facet normal 0 0.0261283 -0.999659
    outer loop
      vertex -18.6701 1.73867 -44.5545
      vertex 18.6701 1.73867 -44.5545
      vertex -18.236 1.55885 -44.5592
    endloop
  endfacet
  facet normal 0 0.0260795 -0.99966
    outer loop
      vertex 18.6701 1.73867 -44.5545
      vertex -18.6701 1.73867 -44.5545
      vertex 19.136 1.8 -44.5529
    endloop
  endfacet
  facet normal 0 0.0260795 -0.99966
    outer loop
      vertex -19.136 1.8 -44.5529
      vertex 19.136 1.8 -44.5529
      vertex -18.6701 1.73867 -44.5545
    endloop
  endfacet
  facet normal 0 0.0261994 -0.999657
    outer loop
      vertex 19.136 1.8 -44.5529
      vertex -19.136 1.8 -44.5529
      vertex 29.9 2.33418 -44.5389
    endloop
  endfacet
  facet normal 0 0.0261784 -0.999657
    outer loop
      vertex -29.9 0 -44.6
      vertex -20.8747 0.465874 -44.5878
      vertex -20.936 0 -44.6
    endloop
  endfacet
  facet normal 5.73914e-07 0.0261673 -0.999658
    outer loop
      vertex -29.9 2.33418 -44.5389
      vertex -20.8747 0.465874 -44.5878
      vertex -29.9 0 -44.6
    endloop
  endfacet
  facet normal 1.64314e-05 0.0262438 -0.999656
    outer loop
      vertex -20.8747 0.465874 -44.5878
      vertex -29.9 2.33418 -44.5389
      vertex -20.6948 0.9 -44.5764
    endloop
  endfacet
  facet normal -1.77147e-05 0.0260248 -0.999661
    outer loop
      vertex -20.6948 0.9 -44.5764
      vertex -29.9 2.33418 -44.5389
      vertex -20.4088 1.27279 -44.5667
    endloop
  endfacet
  facet normal 2.55703e-06 0.0262059 -0.999657
    outer loop
      vertex -20.4088 1.27279 -44.5667
      vertex -29.9 2.33418 -44.5389
      vertex -20.036 1.55885 -44.5592
    endloop
  endfacet
  facet normal 0 0.0261994 -0.999657
    outer loop
      vertex -19.136 1.8 -44.5529
      vertex -29.9 2.33418 -44.5389
      vertex 29.9 2.33418 -44.5389
    endloop
  endfacet
  facet normal -4.32401e-06 0.0261123 -0.999659
    outer loop
      vertex -19.6019 1.73867 -44.5545
      vertex -29.9 2.33418 -44.5389
      vertex -19.136 1.8 -44.5529
    endloop
  endfacet
  facet normal -2.98195e-06 0.0261355 -0.999658
    outer loop
      vertex -20.036 1.55885 -44.5592
      vertex -29.9 2.33418 -44.5389
      vertex -19.6019 1.73867 -44.5545
    endloop
  endfacet
  facet normal 0 0.0784587 -0.996917
    outer loop
      vertex -29.9 2.33418 -44.5389
      vertex 29.9 4.66197 -44.3557
      vertex 29.9 2.33418 -44.5389
    endloop
  endfacet
  facet normal 0 0.0784587 -0.996917
    outer loop
      vertex 29.9 4.66197 -44.3557
      vertex -29.9 2.33418 -44.5389
      vertex -29.9 4.66197 -44.3557
    endloop
  endfacet
  facet normal 0 0.182229 -0.983256
    outer loop
      vertex -29.9 6.97698 -44.0509
      vertex 29.9 9.27286 -43.6254
      vertex 29.9 6.97698 -44.0509
    endloop
  endfacet
  facet normal 0 0.182229 -0.983256
    outer loop
      vertex 29.9 9.27286 -43.6254
      vertex -29.9 6.97698 -44.0509
      vertex -29.9 9.27286 -43.6254
    endloop
  endfacet
  facet normal 0 0.284025 -0.958817
    outer loop
      vertex -29.9 11.5433 -43.0803
      vertex 29.9 13.4 -42.5303
      vertex 29.9 11.5433 -43.0803
    endloop
  endfacet
  facet normal 0 0.284025 -0.958817
    outer loop
      vertex 29.9 13.4 -42.5303
      vertex -29.9 11.5433 -43.0803
      vertex -29.9 13.4 -42.5303
    endloop
  endfacet
  facet normal -5.73914e-07 -0.0261673 -0.999658
    outer loop
      vertex 20.8747 -0.465874 -44.5878
      vertex 29.9 0 -44.6
      vertex 29.9 -2.33418 -44.5389
    endloop
  endfacet
  facet normal -0 -0.0261784 -0.999657
    outer loop
      vertex 29.9 0 -44.6
      vertex 20.8747 -0.465874 -44.5878
      vertex 20.936 0 -44.6
    endloop
  endfacet
  facet normal -1.64314e-05 -0.0262438 -0.999656
    outer loop
      vertex 29.9 -2.33418 -44.5389
      vertex 20.6948 -0.9 -44.5764
      vertex 20.8747 -0.465874 -44.5878
    endloop
  endfacet
  facet normal 1.77147e-05 -0.0260248 -0.999661
    outer loop
      vertex 29.9 -2.33418 -44.5389
      vertex 20.4088 -1.27279 -44.5667
      vertex 20.6948 -0.9 -44.5764
    endloop
  endfacet
  facet normal -2.55703e-06 -0.0262059 -0.999657
    outer loop
      vertex 29.9 -2.33418 -44.5389
      vertex 20.036 -1.55885 -44.5592
      vertex 20.4088 -1.27279 -44.5667
    endloop
  endfacet
  facet normal 2.98195e-06 -0.0261355 -0.999658
    outer loop
      vertex 29.9 -2.33418 -44.5389
      vertex 19.6019 -1.73867 -44.5545
      vertex 20.036 -1.55885 -44.5592
    endloop
  endfacet
  facet normal 4.32401e-06 -0.0261123 -0.999659
    outer loop
      vertex 29.9 -2.33418 -44.5389
      vertex 19.136 -1.8 -44.5529
      vertex 19.6019 -1.73867 -44.5545
    endloop
  endfacet
  facet normal 0 -0.0261784 -0.999657
    outer loop
      vertex 17.3973 -0.465874 -44.5878
      vertex -17.336 0 -44.6
      vertex 17.336 0 -44.6
    endloop
  endfacet
  facet normal 0 -0.0262506 -0.999655
    outer loop
      vertex -17.3973 -0.465874 -44.5878
      vertex 17.3973 -0.465874 -44.5878
      vertex 17.5772 -0.9 -44.5764
    endloop
  endfacet
  facet normal 0 -0.0260112 -0.999662
    outer loop
      vertex -17.5772 -0.9 -44.5764
      vertex 17.5772 -0.9 -44.5764
      vertex 17.8632 -1.27279 -44.5667
    endloop
  endfacet
  facet normal 0 -0.0262093 -0.999656
    outer loop
      vertex -17.8632 -1.27279 -44.5667
      vertex 17.8632 -1.27279 -44.5667
      vertex 18.236 -1.55885 -44.5592
    endloop
  endfacet
  facet normal 0 -0.0261283 -0.999659
    outer loop
      vertex -18.236 -1.55885 -44.5592
      vertex 18.236 -1.55885 -44.5592
      vertex 18.6701 -1.73867 -44.5545
    endloop
  endfacet
  facet normal 0 -0.0260795 -0.99966
    outer loop
      vertex -18.6701 -1.73867 -44.5545
      vertex 18.6701 -1.73867 -44.5545
      vertex 19.136 -1.8 -44.5529
    endloop
  endfacet
  facet normal 0 -0.0261994 -0.999657
    outer loop
      vertex -19.136 -1.8 -44.5529
      vertex 19.136 -1.8 -44.5529
      vertex 29.9 -2.33418 -44.5389
    endloop
  endfacet
  facet normal -0 -0.0261784 -0.999657
    outer loop
      vertex 17.3973 -0.465874 -44.5878
      vertex -17.3973 -0.465874 -44.5878
      vertex -17.336 0 -44.6
    endloop
  endfacet
  facet normal -0 -0.0262506 -0.999655
    outer loop
      vertex 17.5772 -0.9 -44.5764
      vertex -17.5772 -0.9 -44.5764
      vertex -17.3973 -0.465874 -44.5878
    endloop
  endfacet
  facet normal -0 -0.0260112 -0.999662
    outer loop
      vertex 17.8632 -1.27279 -44.5667
      vertex -17.8632 -1.27279 -44.5667
      vertex -17.5772 -0.9 -44.5764
    endloop
  endfacet
  facet normal -0 -0.0262093 -0.999656
    outer loop
      vertex 18.236 -1.55885 -44.5592
      vertex -18.236 -1.55885 -44.5592
      vertex -17.8632 -1.27279 -44.5667
    endloop
  endfacet
  facet normal -0 -0.0261283 -0.999659
    outer loop
      vertex 18.6701 -1.73867 -44.5545
      vertex -18.6701 -1.73867 -44.5545
      vertex -18.236 -1.55885 -44.5592
    endloop
  endfacet
  facet normal -0 -0.0260795 -0.99966
    outer loop
      vertex 19.136 -1.8 -44.5529
      vertex -19.136 -1.8 -44.5529
      vertex -18.6701 -1.73867 -44.5545
    endloop
  endfacet
  facet normal 0 -0.0261994 -0.999657
    outer loop
      vertex -29.9 -2.33418 -44.5389
      vertex -19.136 -1.8 -44.5529
      vertex 29.9 -2.33418 -44.5389
    endloop
  endfacet
  facet normal -4.32401e-06 -0.0261123 -0.999659
    outer loop
      vertex -29.9 -2.33418 -44.5389
      vertex -19.6019 -1.73867 -44.5545
      vertex -19.136 -1.8 -44.5529
    endloop
  endfacet
  facet normal -2.98195e-06 -0.0261355 -0.999658
    outer loop
      vertex -29.9 -2.33418 -44.5389
      vertex -20.036 -1.55885 -44.5592
      vertex -19.6019 -1.73867 -44.5545
    endloop
  endfacet
  facet normal 2.55703e-06 -0.0262059 -0.999657
    outer loop
      vertex -29.9 -2.33418 -44.5389
      vertex -20.4088 -1.27279 -44.5667
      vertex -20.036 -1.55885 -44.5592
    endloop
  endfacet
  facet normal -1.77147e-05 -0.0260248 -0.999661
    outer loop
      vertex -29.9 -2.33418 -44.5389
      vertex -20.6948 -0.9 -44.5764
      vertex -20.4088 -1.27279 -44.5667
    endloop
  endfacet
  facet normal 1.64314e-05 -0.0262438 -0.999656
    outer loop
      vertex -29.9 -2.33418 -44.5389
      vertex -20.8747 -0.465874 -44.5878
      vertex -20.6948 -0.9 -44.5764
    endloop
  endfacet
  facet normal 5.73914e-07 -0.0261673 -0.999658
    outer loop
      vertex -29.9 0 -44.6
      vertex -20.8747 -0.465874 -44.5878
      vertex -29.9 -2.33418 -44.5389
    endloop
  endfacet
  facet normal 0 -0.0261784 -0.999657
    outer loop
      vertex -20.8747 -0.465874 -44.5878
      vertex -29.9 0 -44.6
      vertex -20.936 0 -44.6
    endloop
  endfacet
  facet normal 0 -0.233452 -0.972368
    outer loop
      vertex -29.9 -11.5433 -43.0803
      vertex 29.9 -9.27286 -43.6254
      vertex 29.9 -11.5433 -43.0803
    endloop
  endfacet
  facet normal -0 -0.233452 -0.972368
    outer loop
      vertex 29.9 -9.27286 -43.6254
      vertex -29.9 -11.5433 -43.0803
      vertex -29.9 -9.27286 -43.6254
    endloop
  endfacet
  facet normal 0 0.130536 -0.991444
    outer loop
      vertex -29.9 4.66197 -44.3557
      vertex 29.9 6.97698 -44.0509
      vertex 29.9 4.66197 -44.3557
    endloop
  endfacet
  facet normal 0 0.130536 -0.991444
    outer loop
      vertex 29.9 6.97698 -44.0509
      vertex -29.9 4.66197 -44.3557
      vertex -29.9 6.97698 -44.0509
    endloop
  endfacet
  facet normal 0 0.233452 -0.972368
    outer loop
      vertex -29.9 9.27286 -43.6254
      vertex 29.9 11.5433 -43.0803
      vertex 29.9 9.27286 -43.6254
    endloop
  endfacet
  facet normal 0 0.233452 -0.972368
    outer loop
      vertex 29.9 11.5433 -43.0803
      vertex -29.9 9.27286 -43.6254
      vertex -29.9 11.5433 -43.0803
    endloop
  endfacet
  facet normal 0 -0.284025 -0.958817
    outer loop
      vertex -29.9 -13.4 -42.5303
      vertex 29.9 -11.5433 -43.0803
      vertex 29.9 -13.4 -42.5303
    endloop
  endfacet
  facet normal -0 -0.284025 -0.958817
    outer loop
      vertex 29.9 -11.5433 -43.0803
      vertex -29.9 -13.4 -42.5303
      vertex -29.9 -11.5433 -43.0803
    endloop
  endfacet
  facet normal 0 -0.182229 -0.983256
    outer loop
      vertex -29.9 -9.27286 -43.6254
      vertex 29.9 -6.97698 -44.0509
      vertex 29.9 -9.27286 -43.6254
    endloop
  endfacet
  facet normal -0 -0.182229 -0.983256
    outer loop
      vertex 29.9 -6.97698 -44.0509
      vertex -29.9 -9.27286 -43.6254
      vertex -29.9 -6.97698 -44.0509
    endloop
  endfacet
  facet normal 0 -0.0784587 -0.996917
    outer loop
      vertex -29.9 -4.66197 -44.3557
      vertex 29.9 -2.33418 -44.5389
      vertex 29.9 -4.66197 -44.3557
    endloop
  endfacet
  facet normal -0 -0.0784587 -0.996917
    outer loop
      vertex 29.9 -2.33418 -44.5389
      vertex -29.9 -4.66197 -44.3557
      vertex -29.9 -2.33418 -44.5389
    endloop
  endfacet
  facet normal 0 -0.130536 -0.991444
    outer loop
      vertex -29.9 -6.97698 -44.0509
      vertex 29.9 -4.66197 -44.3557
      vertex 29.9 -6.97698 -44.0509
    endloop
  endfacet
  facet normal -0 -0.130536 -0.991444
    outer loop
      vertex 29.9 -4.66197 -44.3557
      vertex -29.9 -6.97698 -44.0509
      vertex -29.9 -4.66197 -44.3557
    endloop
  endfacet
  facet normal -0.991454 -0.130456 -0
    outer loop
      vertex -17.336 0 -42.6
      vertex -17.3973 0.465874 -44.5878
      vertex -17.336 0 -44.6
    endloop
  endfacet
  facet normal -0.991454 -0.130456 0
    outer loop
      vertex -17.3973 0.465874 -44.5878
      vertex -17.336 0 -42.6
      vertex -17.3973 0.465874 -42.6
    endloop
  endfacet
  facet normal 0.991454 -0.130456 0
    outer loop
      vertex -20.936 0 -42.6
      vertex -20.8747 0.465874 -44.5878
      vertex -20.8747 0.465874 -42.6
    endloop
  endfacet
  facet normal 0.991454 -0.130456 0
    outer loop
      vertex -20.8747 0.465874 -44.5878
      vertex -20.936 0 -42.6
      vertex -20.936 0 -44.6
    endloop
  endfacet
  facet normal -0.130512 -0.991447 0
    outer loop
      vertex -19.136 1.8 -44.5529
      vertex -18.6701 1.73867 -42.6
      vertex -19.136 1.8 -42.6
    endloop
  endfacet
  facet normal -0.130512 -0.991447 -0
    outer loop
      vertex -18.6701 1.73867 -42.6
      vertex -19.136 1.8 -44.5529
      vertex -18.6701 1.73867 -44.5545
    endloop
  endfacet
  facet normal -0.608762 -0.793353 0
    outer loop
      vertex -18.236 1.55885 -44.5592
      vertex -17.8632 1.27279 -42.6
      vertex -18.236 1.55885 -42.6
    endloop
  endfacet
  facet normal -0.608762 -0.793353 -0
    outer loop
      vertex -17.8632 1.27279 -42.6
      vertex -18.236 1.55885 -44.5592
      vertex -17.8632 1.27279 -44.5667
    endloop
  endfacet
  facet normal -0.382701 -0.923872 0
    outer loop
      vertex -18.6701 1.73867 -44.5545
      vertex -18.236 1.55885 -42.6
      vertex -18.6701 1.73867 -42.6
    endloop
  endfacet
  facet normal -0.382701 -0.923872 -0
    outer loop
      vertex -18.236 1.55885 -42.6
      vertex -18.6701 1.73867 -44.5545
      vertex -18.236 1.55885 -44.5592
    endloop
  endfacet
  facet normal 0.608762 -0.793353 0
    outer loop
      vertex -20.4088 1.27279 -42.6
      vertex -20.036 1.55885 -44.5592
      vertex -20.036 1.55885 -42.6
    endloop
  endfacet
  facet normal 0.608762 -0.793353 0
    outer loop
      vertex -20.036 1.55885 -44.5592
      vertex -20.4088 1.27279 -42.6
      vertex -20.4088 1.27279 -44.5667
    endloop
  endfacet
  facet normal 0.793407 -0.608692 0
    outer loop
      vertex -20.6948 0.9 -42.6
      vertex -20.4088 1.27279 -44.5667
      vertex -20.4088 1.27279 -42.6
    endloop
  endfacet
  facet normal 0.793407 -0.608692 0
    outer loop
      vertex -20.4088 1.27279 -44.5667
      vertex -20.6948 0.9 -42.6
      vertex -20.6948 0.9 -44.5764
    endloop
  endfacet
  facet normal 0.382701 -0.923872 0
    outer loop
      vertex -20.036 1.55885 -42.6
      vertex -19.6019 1.73867 -44.5545
      vertex -19.6019 1.73867 -42.6
    endloop
  endfacet
  facet normal 0.382701 -0.923872 0
    outer loop
      vertex -19.6019 1.73867 -44.5545
      vertex -20.036 1.55885 -42.6
      vertex -20.036 1.55885 -44.5592
    endloop
  endfacet
  facet normal -0.793407 0.608692 0
    outer loop
      vertex -17.8632 -1.27279 -44.5667
      vertex -17.5772 -0.9 -42.6
      vertex -17.5772 -0.9 -44.5764
    endloop
  endfacet
  facet normal -0.793407 0.608692 0
    outer loop
      vertex -17.5772 -0.9 -42.6
      vertex -17.8632 -1.27279 -44.5667
      vertex -17.8632 -1.27279 -42.6
    endloop
  endfacet
  facet normal 0.608762 0.793353 -0
    outer loop
      vertex -20.036 -1.55885 -44.5592
      vertex -20.4088 -1.27279 -42.6
      vertex -20.036 -1.55885 -42.6
    endloop
  endfacet
  facet normal 0.608762 0.793353 0
    outer loop
      vertex -20.4088 -1.27279 -42.6
      vertex -20.036 -1.55885 -44.5592
      vertex -20.4088 -1.27279 -44.5667
    endloop
  endfacet
  facet normal -0.793407 -0.608692 -0
    outer loop
      vertex -17.5772 0.9 -42.6
      vertex -17.8632 1.27279 -44.5667
      vertex -17.5772 0.9 -44.5764
    endloop
  endfacet
  facet normal -0.793407 -0.608692 0
    outer loop
      vertex -17.8632 1.27279 -44.5667
      vertex -17.5772 0.9 -42.6
      vertex -17.8632 1.27279 -42.6
    endloop
  endfacet
  facet normal -0.92382 -0.382827 -0
    outer loop
      vertex -17.3973 0.465874 -42.6
      vertex -17.5772 0.9 -44.5764
      vertex -17.3973 0.465874 -44.5878
    endloop
  endfacet
  facet normal -0.92382 -0.382827 0
    outer loop
      vertex -17.5772 0.9 -44.5764
      vertex -17.3973 0.465874 -42.6
      vertex -17.5772 0.9 -42.6
    endloop
  endfacet
  facet normal 0.92382 -0.382827 0
    outer loop
      vertex -20.8747 0.465874 -42.6
      vertex -20.6948 0.9 -44.5764
      vertex -20.6948 0.9 -42.6
    endloop
  endfacet
  facet normal 0.92382 -0.382827 0
    outer loop
      vertex -20.6948 0.9 -44.5764
      vertex -20.8747 0.465874 -42.6
      vertex -20.8747 0.465874 -44.5878
    endloop
  endfacet
  facet normal 0.130512 -0.991447 0
    outer loop
      vertex -19.6019 1.73867 -42.6
      vertex -19.136 1.8 -44.5529
      vertex -19.136 1.8 -42.6
    endloop
  endfacet
  facet normal 0.130512 -0.991447 0
    outer loop
      vertex -19.136 1.8 -44.5529
      vertex -19.6019 1.73867 -42.6
      vertex -19.6019 1.73867 -44.5545
    endloop
  endfacet
  facet normal -0.991454 0.130456 0
    outer loop
      vertex -17.3973 -0.465874 -44.5878
      vertex -17.336 0 -42.6
      vertex -17.336 0 -44.6
    endloop
  endfacet
  facet normal -0.991454 0.130456 0
    outer loop
      vertex -17.336 0 -42.6
      vertex -17.3973 -0.465874 -44.5878
      vertex -17.3973 -0.465874 -42.6
    endloop
  endfacet
  facet normal -0.130512 0.991447 0
    outer loop
      vertex -18.6701 -1.73867 -42.6
      vertex -19.136 -1.8 -44.5529
      vertex -19.136 -1.8 -42.6
    endloop
  endfacet
  facet normal -0.130512 0.991447 0
    outer loop
      vertex -19.136 -1.8 -44.5529
      vertex -18.6701 -1.73867 -42.6
      vertex -18.6701 -1.73867 -44.5545
    endloop
  endfacet
  facet normal -0.608762 0.793353 0
    outer loop
      vertex -17.8632 -1.27279 -42.6
      vertex -18.236 -1.55885 -44.5592
      vertex -18.236 -1.55885 -42.6
    endloop
  endfacet
  facet normal -0.608762 0.793353 0
    outer loop
      vertex -18.236 -1.55885 -44.5592
      vertex -17.8632 -1.27279 -42.6
      vertex -17.8632 -1.27279 -44.5667
    endloop
  endfacet
  facet normal 0.382701 0.923872 -0
    outer loop
      vertex -19.6019 -1.73867 -44.5545
      vertex -20.036 -1.55885 -42.6
      vertex -19.6019 -1.73867 -42.6
    endloop
  endfacet
  facet normal 0.382701 0.923872 0
    outer loop
      vertex -20.036 -1.55885 -42.6
      vertex -19.6019 -1.73867 -44.5545
      vertex -20.036 -1.55885 -44.5592
    endloop
  endfacet
  facet normal 0.793407 0.608692 -0
    outer loop
      vertex -20.4088 -1.27279 -44.5667
      vertex -20.6948 -0.9 -42.6
      vertex -20.4088 -1.27279 -42.6
    endloop
  endfacet
  facet normal 0.793407 0.608692 0
    outer loop
      vertex -20.6948 -0.9 -42.6
      vertex -20.4088 -1.27279 -44.5667
      vertex -20.6948 -0.9 -44.5764
    endloop
  endfacet
  facet normal 0.991454 0.130456 -0
    outer loop
      vertex -20.8747 -0.465874 -44.5878
      vertex -20.936 0 -42.6
      vertex -20.8747 -0.465874 -42.6
    endloop
  endfacet
  facet normal 0.991454 0.130456 0
    outer loop
      vertex -20.936 0 -42.6
      vertex -20.8747 -0.465874 -44.5878
      vertex -20.936 0 -44.6
    endloop
  endfacet
  facet normal -0.382701 0.923872 0
    outer loop
      vertex -18.236 -1.55885 -42.6
      vertex -18.6701 -1.73867 -44.5545
      vertex -18.6701 -1.73867 -42.6
    endloop
  endfacet
  facet normal -0.382701 0.923872 0
    outer loop
      vertex -18.6701 -1.73867 -44.5545
      vertex -18.236 -1.55885 -42.6
      vertex -18.236 -1.55885 -44.5592
    endloop
  endfacet
  facet normal -0.92382 0.382827 0
    outer loop
      vertex -17.5772 -0.9 -44.5764
      vertex -17.3973 -0.465874 -42.6
      vertex -17.3973 -0.465874 -44.5878
    endloop
  endfacet
  facet normal -0.92382 0.382827 0
    outer loop
      vertex -17.3973 -0.465874 -42.6
      vertex -17.5772 -0.9 -44.5764
      vertex -17.5772 -0.9 -42.6
    endloop
  endfacet
  facet normal 0.130512 0.991447 -0
    outer loop
      vertex -19.136 -1.8 -44.5529
      vertex -19.6019 -1.73867 -42.6
      vertex -19.136 -1.8 -42.6
    endloop
  endfacet
  facet normal 0.130512 0.991447 0
    outer loop
      vertex -19.6019 -1.73867 -42.6
      vertex -19.136 -1.8 -44.5529
      vertex -19.6019 -1.73867 -44.5545
    endloop
  endfacet
  facet normal 0.92382 0.382827 -0
    outer loop
      vertex -20.6948 -0.9 -44.5764
      vertex -20.8747 -0.465874 -42.6
      vertex -20.6948 -0.9 -42.6
    endloop
  endfacet
  facet normal 0.92382 0.382827 0
    outer loop
      vertex -20.8747 -0.465874 -42.6
      vertex -20.6948 -0.9 -44.5764
      vertex -20.8747 -0.465874 -44.5878
    endloop
  endfacet
  facet normal -0.991454 -0.130456 -0
    outer loop
      vertex 20.936 0 -42.6
      vertex 20.8747 0.465874 -44.5878
      vertex 20.936 0 -44.6
    endloop
  endfacet
  facet normal -0.991454 -0.130456 0
    outer loop
      vertex 20.8747 0.465874 -44.5878
      vertex 20.936 0 -42.6
      vertex 20.8747 0.465874 -42.6
    endloop
  endfacet
  facet normal 0.991454 -0.130456 0
    outer loop
      vertex 17.336 0 -42.6
      vertex 17.3973 0.465874 -44.5878
      vertex 17.3973 0.465874 -42.6
    endloop
  endfacet
  facet normal 0.991454 -0.130456 0
    outer loop
      vertex 17.3973 0.465874 -44.5878
      vertex 17.336 0 -42.6
      vertex 17.336 0 -44.6
    endloop
  endfacet
  facet normal -0.130512 -0.991447 0
    outer loop
      vertex 19.136 1.8 -44.5529
      vertex 19.6019 1.73867 -42.6
      vertex 19.136 1.8 -42.6
    endloop
  endfacet
  facet normal -0.130512 -0.991447 -0
    outer loop
      vertex 19.6019 1.73867 -42.6
      vertex 19.136 1.8 -44.5529
      vertex 19.6019 1.73867 -44.5545
    endloop
  endfacet
  facet normal 0.793407 0.608692 -0
    outer loop
      vertex 17.8632 -1.27279 -44.5667
      vertex 17.5772 -0.9 -42.6
      vertex 17.8632 -1.27279 -42.6
    endloop
  endfacet
  facet normal 0.793407 0.608692 0
    outer loop
      vertex 17.5772 -0.9 -42.6
      vertex 17.8632 -1.27279 -44.5667
      vertex 17.5772 -0.9 -44.5764
    endloop
  endfacet
  facet normal -0.608762 -0.793353 0
    outer loop
      vertex 20.036 1.55885 -44.5592
      vertex 20.4088 1.27279 -42.6
      vertex 20.036 1.55885 -42.6
    endloop
  endfacet
  facet normal -0.608762 -0.793353 -0
    outer loop
      vertex 20.4088 1.27279 -42.6
      vertex 20.036 1.55885 -44.5592
      vertex 20.4088 1.27279 -44.5667
    endloop
  endfacet
  facet normal -0.92382 -0.382827 -0
    outer loop
      vertex 20.8747 0.465874 -42.6
      vertex 20.6948 0.9 -44.5764
      vertex 20.8747 0.465874 -44.5878
    endloop
  endfacet
  facet normal -0.92382 -0.382827 0
    outer loop
      vertex 20.6948 0.9 -44.5764
      vertex 20.8747 0.465874 -42.6
      vertex 20.6948 0.9 -42.6
    endloop
  endfacet
  facet normal -0.382701 -0.923872 0
    outer loop
      vertex 19.6019 1.73867 -44.5545
      vertex 20.036 1.55885 -42.6
      vertex 19.6019 1.73867 -42.6
    endloop
  endfacet
  facet normal -0.382701 -0.923872 -0
    outer loop
      vertex 20.036 1.55885 -42.6
      vertex 19.6019 1.73867 -44.5545
      vertex 20.036 1.55885 -44.5592
    endloop
  endfacet
  facet normal 0.608762 -0.793353 0
    outer loop
      vertex 17.8632 1.27279 -42.6
      vertex 18.236 1.55885 -44.5592
      vertex 18.236 1.55885 -42.6
    endloop
  endfacet
  facet normal 0.608762 -0.793353 0
    outer loop
      vertex 18.236 1.55885 -44.5592
      vertex 17.8632 1.27279 -42.6
      vertex 17.8632 1.27279 -44.5667
    endloop
  endfacet
  facet normal 0.382701 -0.923872 0
    outer loop
      vertex 18.236 1.55885 -42.6
      vertex 18.6701 1.73867 -44.5545
      vertex 18.6701 1.73867 -42.6
    endloop
  endfacet
  facet normal 0.382701 -0.923872 0
    outer loop
      vertex 18.6701 1.73867 -44.5545
      vertex 18.236 1.55885 -42.6
      vertex 18.236 1.55885 -44.5592
    endloop
  endfacet
  facet normal -0.793407 0.608692 0
    outer loop
      vertex 20.4088 -1.27279 -44.5667
      vertex 20.6948 -0.9 -42.6
      vertex 20.6948 -0.9 -44.5764
    endloop
  endfacet
  facet normal -0.793407 0.608692 0
    outer loop
      vertex 20.6948 -0.9 -42.6
      vertex 20.4088 -1.27279 -44.5667
      vertex 20.4088 -1.27279 -42.6
    endloop
  endfacet
  facet normal 0.608762 0.793353 -0
    outer loop
      vertex 18.236 -1.55885 -44.5592
      vertex 17.8632 -1.27279 -42.6
      vertex 18.236 -1.55885 -42.6
    endloop
  endfacet
  facet normal 0.608762 0.793353 0
    outer loop
      vertex 17.8632 -1.27279 -42.6
      vertex 18.236 -1.55885 -44.5592
      vertex 17.8632 -1.27279 -44.5667
    endloop
  endfacet
  facet normal 0.991454 0.130456 -0
    outer loop
      vertex 17.3973 -0.465874 -44.5878
      vertex 17.336 0 -42.6
      vertex 17.3973 -0.465874 -42.6
    endloop
  endfacet
  facet normal 0.991454 0.130456 0
    outer loop
      vertex 17.336 0 -42.6
      vertex 17.3973 -0.465874 -44.5878
      vertex 17.336 0 -44.6
    endloop
  endfacet
  facet normal -0.793407 -0.608692 -0
    outer loop
      vertex 20.6948 0.9 -42.6
      vertex 20.4088 1.27279 -44.5667
      vertex 20.6948 0.9 -44.5764
    endloop
  endfacet
  facet normal -0.793407 -0.608692 0
    outer loop
      vertex 20.4088 1.27279 -44.5667
      vertex 20.6948 0.9 -42.6
      vertex 20.4088 1.27279 -42.6
    endloop
  endfacet
  facet normal 0.793407 -0.608692 0
    outer loop
      vertex 17.5772 0.9 -42.6
      vertex 17.8632 1.27279 -44.5667
      vertex 17.8632 1.27279 -42.6
    endloop
  endfacet
  facet normal 0.793407 -0.608692 0
    outer loop
      vertex 17.8632 1.27279 -44.5667
      vertex 17.5772 0.9 -42.6
      vertex 17.5772 0.9 -44.5764
    endloop
  endfacet
  facet normal 0.92382 -0.382827 0
    outer loop
      vertex 17.3973 0.465874 -42.6
      vertex 17.5772 0.9 -44.5764
      vertex 17.5772 0.9 -42.6
    endloop
  endfacet
  facet normal 0.92382 -0.382827 0
    outer loop
      vertex 17.5772 0.9 -44.5764
      vertex 17.3973 0.465874 -42.6
      vertex 17.3973 0.465874 -44.5878
    endloop
  endfacet
  facet normal 0.130512 -0.991447 0
    outer loop
      vertex 18.6701 1.73867 -42.6
      vertex 19.136 1.8 -44.5529
      vertex 19.136 1.8 -42.6
    endloop
  endfacet
  facet normal 0.130512 -0.991447 0
    outer loop
      vertex 19.136 1.8 -44.5529
      vertex 18.6701 1.73867 -42.6
      vertex 18.6701 1.73867 -44.5545
    endloop
  endfacet
  facet normal -0.991454 0.130456 0
    outer loop
      vertex 20.8747 -0.465874 -44.5878
      vertex 20.936 0 -42.6
      vertex 20.936 0 -44.6
    endloop
  endfacet
  facet normal -0.991454 0.130456 0
    outer loop
      vertex 20.936 0 -42.6
      vertex 20.8747 -0.465874 -44.5878
      vertex 20.8747 -0.465874 -42.6
    endloop
  endfacet
  facet normal -0.130512 0.991447 0
    outer loop
      vertex 19.6019 -1.73867 -42.6
      vertex 19.136 -1.8 -44.5529
      vertex 19.136 -1.8 -42.6
    endloop
  endfacet
  facet normal -0.130512 0.991447 0
    outer loop
      vertex 19.136 -1.8 -44.5529
      vertex 19.6019 -1.73867 -42.6
      vertex 19.6019 -1.73867 -44.5545
    endloop
  endfacet
  facet normal -0.608762 0.793353 0
    outer loop
      vertex 20.4088 -1.27279 -42.6
      vertex 20.036 -1.55885 -44.5592
      vertex 20.036 -1.55885 -42.6
    endloop
  endfacet
  facet normal -0.608762 0.793353 0
    outer loop
      vertex 20.036 -1.55885 -44.5592
      vertex 20.4088 -1.27279 -42.6
      vertex 20.4088 -1.27279 -44.5667
    endloop
  endfacet
  facet normal 0.382701 0.923872 -0
    outer loop
      vertex 18.6701 -1.73867 -44.5545
      vertex 18.236 -1.55885 -42.6
      vertex 18.6701 -1.73867 -42.6
    endloop
  endfacet
  facet normal 0.382701 0.923872 0
    outer loop
      vertex 18.236 -1.55885 -42.6
      vertex 18.6701 -1.73867 -44.5545
      vertex 18.236 -1.55885 -44.5592
    endloop
  endfacet
  facet normal 0.92382 0.382827 -0
    outer loop
      vertex 17.5772 -0.9 -44.5764
      vertex 17.3973 -0.465874 -42.6
      vertex 17.5772 -0.9 -42.6
    endloop
  endfacet
  facet normal 0.92382 0.382827 0
    outer loop
      vertex 17.3973 -0.465874 -42.6
      vertex 17.5772 -0.9 -44.5764
      vertex 17.3973 -0.465874 -44.5878
    endloop
  endfacet
  facet normal -0.382701 0.923872 0
    outer loop
      vertex 20.036 -1.55885 -42.6
      vertex 19.6019 -1.73867 -44.5545
      vertex 19.6019 -1.73867 -42.6
    endloop
  endfacet
  facet normal -0.382701 0.923872 0
    outer loop
      vertex 19.6019 -1.73867 -44.5545
      vertex 20.036 -1.55885 -42.6
      vertex 20.036 -1.55885 -44.5592
    endloop
  endfacet
  facet normal -0.92382 0.382827 0
    outer loop
      vertex 20.6948 -0.9 -44.5764
      vertex 20.8747 -0.465874 -42.6
      vertex 20.8747 -0.465874 -44.5878
    endloop
  endfacet
  facet normal -0.92382 0.382827 0
    outer loop
      vertex 20.8747 -0.465874 -42.6
      vertex 20.6948 -0.9 -44.5764
      vertex 20.6948 -0.9 -42.6
    endloop
  endfacet
  facet normal 0.130512 0.991447 -0
    outer loop
      vertex 19.136 -1.8 -44.5529
      vertex 18.6701 -1.73867 -42.6
      vertex 19.136 -1.8 -42.6
    endloop
  endfacet
  facet normal 0.130512 0.991447 0
    outer loop
      vertex 18.6701 -1.73867 -42.6
      vertex 19.136 -1.8 -44.5529
      vertex 18.6701 -1.73867 -44.5545
    endloop
  endfacet
  facet normal 1 -0 0
    outer loop
      vertex -27.5 -11 -22.5
      vertex -27.5 11 -42.6
      vertex -27.5 11 -22.5
    endloop
  endfacet
  facet normal 1 0 0
    outer loop
      vertex -27.5 11 -42.6
      vertex -27.5 -11 -22.5
      vertex -27.5 -11 -42.6
    endloop
  endfacet
  facet normal -1 0 0
    outer loop
      vertex 27.5 -11 -42.6
      vertex 27.5 11 -22.5
      vertex 27.5 11 -42.6
    endloop
  endfacet
  facet normal -1 -0 0
    outer loop
      vertex 27.5 11 -22.5
      vertex 27.5 -11 -42.6
      vertex 27.5 -11 -22.5
    endloop
  endfacet
  facet normal 0 -1 0
    outer loop
      vertex -27.5 11 -42.6
      vertex 27.5 11 -22.5
      vertex -27.5 11 -22.5
    endloop
  endfacet
  facet normal 0 -1 -0
    outer loop
      vertex 27.5 11 -22.5
      vertex -27.5 11 -42.6
      vertex 27.5 11 -42.6
    endloop
  endfacet
  facet normal 0 0 1
    outer loop
      vertex 27.5 11 -42.6
      vertex 20.936 0 -42.6
      vertex 27.5 -11 -42.6
    endloop
  endfacet
  facet normal 0 0 1
    outer loop
      vertex 27.5 11 -42.6
      vertex 20.8747 0.465874 -42.6
      vertex 20.936 0 -42.6
    endloop
  endfacet
  facet normal 0 0 1
    outer loop
      vertex 27.5 11 -42.6
      vertex 20.6948 0.9 -42.6
      vertex 20.8747 0.465874 -42.6
    endloop
  endfacet
  facet normal 0 0 1
    outer loop
      vertex 27.5 11 -42.6
      vertex 20.4088 1.27279 -42.6
      vertex 20.6948 0.9 -42.6
    endloop
  endfacet
  facet normal 0 0 1
    outer loop
      vertex 27.5 11 -42.6
      vertex 20.036 1.55885 -42.6
      vertex 20.4088 1.27279 -42.6
    endloop
  endfacet
  facet normal 0 0 1
    outer loop
      vertex 27.5 11 -42.6
      vertex 19.6019 1.73867 -42.6
      vertex 20.036 1.55885 -42.6
    endloop
  endfacet
  facet normal 0 0 1
    outer loop
      vertex 27.5 11 -42.6
      vertex 19.136 1.8 -42.6
      vertex 19.6019 1.73867 -42.6
    endloop
  endfacet
  facet normal 0 0 1
    outer loop
      vertex 27.5 11 -42.6
      vertex 18.6701 1.73867 -42.6
      vertex 19.136 1.8 -42.6
    endloop
  endfacet
  facet normal 0 0 1
    outer loop
      vertex 27.5 11 -42.6
      vertex 18.236 1.55885 -42.6
      vertex 18.6701 1.73867 -42.6
    endloop
  endfacet
  facet normal 0 0 1
    outer loop
      vertex -18.236 1.55885 -42.6
      vertex 18.236 1.55885 -42.6
      vertex 27.5 11 -42.6
    endloop
  endfacet
  facet normal 0 0 1
    outer loop
      vertex 17.3973 0.465874 -42.6
      vertex -17.336 0 -42.6
      vertex 17.336 0 -42.6
    endloop
  endfacet
  facet normal 0 0 1
    outer loop
      vertex -17.3973 0.465874 -42.6
      vertex 17.3973 0.465874 -42.6
      vertex 17.5772 0.9 -42.6
    endloop
  endfacet
  facet normal 0 0 1
    outer loop
      vertex -17.5772 0.9 -42.6
      vertex 17.5772 0.9 -42.6
      vertex 17.8632 1.27279 -42.6
    endloop
  endfacet
  facet normal 0 0 1
    outer loop
      vertex 18.236 1.55885 -42.6
      vertex -18.236 1.55885 -42.6
      vertex 17.8632 1.27279 -42.6
    endloop
  endfacet
  facet normal 0 0 1
    outer loop
      vertex 17.3973 0.465874 -42.6
      vertex -17.3973 0.465874 -42.6
      vertex -17.336 0 -42.6
    endloop
  endfacet
  facet normal 0 0 1
    outer loop
      vertex 17.5772 0.9 -42.6
      vertex -17.5772 0.9 -42.6
      vertex -17.3973 0.465874 -42.6
    endloop
  endfacet
  facet normal 0 0 1
    outer loop
      vertex 17.8632 1.27279 -42.6
      vertex -17.8632 1.27279 -42.6
      vertex -17.5772 0.9 -42.6
    endloop
  endfacet
  facet normal 0 0 1
    outer loop
      vertex 17.8632 1.27279 -42.6
      vertex -18.236 1.55885 -42.6
      vertex -17.8632 1.27279 -42.6
    endloop
  endfacet
  facet normal -0 0 1
    outer loop
      vertex -27.5 11 -42.6
      vertex -18.236 1.55885 -42.6
      vertex 27.5 11 -42.6
    endloop
  endfacet
  facet normal 0 0 1
    outer loop
      vertex -18.236 1.55885 -42.6
      vertex -27.5 11 -42.6
      vertex -18.6701 1.73867 -42.6
    endloop
  endfacet
  facet normal 0 0 1
    outer loop
      vertex -18.6701 1.73867 -42.6
      vertex -27.5 11 -42.6
      vertex -19.136 1.8 -42.6
    endloop
  endfacet
  facet normal 0 0 1
    outer loop
      vertex -20.8747 0.465874 -42.6
      vertex -27.5 11 -42.6
      vertex -20.936 0 -42.6
    endloop
  endfacet
  facet normal 0 0 1
    outer loop
      vertex -20.6948 0.9 -42.6
      vertex -27.5 11 -42.6
      vertex -20.8747 0.465874 -42.6
    endloop
  endfacet
  facet normal 0 0 1
    outer loop
      vertex -20.4088 1.27279 -42.6
      vertex -27.5 11 -42.6
      vertex -20.6948 0.9 -42.6
    endloop
  endfacet
  facet normal 0 0 1
    outer loop
      vertex -20.036 1.55885 -42.6
      vertex -27.5 11 -42.6
      vertex -20.4088 1.27279 -42.6
    endloop
  endfacet
  facet normal 0 0 1
    outer loop
      vertex -19.6019 1.73867 -42.6
      vertex -27.5 11 -42.6
      vertex -20.036 1.55885 -42.6
    endloop
  endfacet
  facet normal 0 0 1
    outer loop
      vertex -19.136 1.8 -42.6
      vertex -27.5 11 -42.6
      vertex -19.6019 1.73867 -42.6
    endloop
  endfacet
  facet normal -0 0 1
    outer loop
      vertex 20.8747 -0.465874 -42.6
      vertex 27.5 -11 -42.6
      vertex 20.936 0 -42.6
    endloop
  endfacet
  facet normal -0 0 1
    outer loop
      vertex 20.6948 -0.9 -42.6
      vertex 27.5 -11 -42.6
      vertex 20.8747 -0.465874 -42.6
    endloop
  endfacet
  facet normal -0 0 1
    outer loop
      vertex 20.4088 -1.27279 -42.6
      vertex 27.5 -11 -42.6
      vertex 20.6948 -0.9 -42.6
    endloop
  endfacet
  facet normal -0 0 1
    outer loop
      vertex 20.036 -1.55885 -42.6
      vertex 27.5 -11 -42.6
      vertex 20.4088 -1.27279 -42.6
    endloop
  endfacet
  facet normal -0 0 1
    outer loop
      vertex 19.6019 -1.73867 -42.6
      vertex 27.5 -11 -42.6
      vertex 20.036 -1.55885 -42.6
    endloop
  endfacet
  facet normal -0 0 1
    outer loop
      vertex 19.136 -1.8 -42.6
      vertex 27.5 -11 -42.6
      vertex 19.6019 -1.73867 -42.6
    endloop
  endfacet
  facet normal 0 0 1
    outer loop
      vertex 18.6701 -1.73867 -42.6
      vertex 27.5 -11 -42.6
      vertex 19.136 -1.8 -42.6
    endloop
  endfacet
  facet normal 0 0 1
    outer loop
      vertex 18.236 -1.55885 -42.6
      vertex 27.5 -11 -42.6
      vertex 18.6701 -1.73867 -42.6
    endloop
  endfacet
  facet normal 0 0 1
    outer loop
      vertex -18.236 -1.55885 -42.6
      vertex 18.236 -1.55885 -42.6
      vertex 17.8632 -1.27279 -42.6
    endloop
  endfacet
  facet normal -0 0 1
    outer loop
      vertex -17.336 0 -42.6
      vertex 17.3973 -0.465874 -42.6
      vertex 17.336 0 -42.6
    endloop
  endfacet
  facet normal 0 0 1
    outer loop
      vertex -17.3973 -0.465874 -42.6
      vertex 17.3973 -0.465874 -42.6
      vertex -17.336 0 -42.6
    endloop
  endfacet
  facet normal 0 0 1
    outer loop
      vertex 17.3973 -0.465874 -42.6
      vertex -17.3973 -0.465874 -42.6
      vertex 17.5772 -0.9 -42.6
    endloop
  endfacet
  facet normal 0 0 1
    outer loop
      vertex -17.5772 -0.9 -42.6
      vertex 17.5772 -0.9 -42.6
      vertex -17.3973 -0.465874 -42.6
    endloop
  endfacet
  facet normal 0 0 1
    outer loop
      vertex 17.5772 -0.9 -42.6
      vertex -17.5772 -0.9 -42.6
      vertex 17.8632 -1.27279 -42.6
    endloop
  endfacet
  facet normal 0 0 1
    outer loop
      vertex -17.8632 -1.27279 -42.6
      vertex 17.8632 -1.27279 -42.6
      vertex -17.5772 -0.9 -42.6
    endloop
  endfacet
  facet normal 0 0 1
    outer loop
      vertex -18.236 -1.55885 -42.6
      vertex 17.8632 -1.27279 -42.6
      vertex -17.8632 -1.27279 -42.6
    endloop
  endfacet
  facet normal 0 0 1
    outer loop
      vertex 18.236 -1.55885 -42.6
      vertex -18.236 -1.55885 -42.6
      vertex 27.5 -11 -42.6
    endloop
  endfacet
  facet normal 0 0 1
    outer loop
      vertex -27.5 -11 -42.6
      vertex -18.236 -1.55885 -42.6
      vertex -18.6701 -1.73867 -42.6
    endloop
  endfacet
  facet normal 0 0 1
    outer loop
      vertex -27.5 -11 -42.6
      vertex -18.6701 -1.73867 -42.6
      vertex -19.136 -1.8 -42.6
    endloop
  endfacet
  facet normal 0 0 1
    outer loop
      vertex -27.5 -11 -42.6
      vertex -19.136 -1.8 -42.6
      vertex -19.6019 -1.73867 -42.6
    endloop
  endfacet
  facet normal 0 0 1
    outer loop
      vertex -27.5 -11 -42.6
      vertex -20.936 0 -42.6
      vertex -27.5 11 -42.6
    endloop
  endfacet
  facet normal 0 0 1
    outer loop
      vertex -20.936 0 -42.6
      vertex -27.5 -11 -42.6
      vertex -20.8747 -0.465874 -42.6
    endloop
  endfacet
  facet normal 0 0 1
    outer loop
      vertex -18.236 -1.55885 -42.6
      vertex -27.5 -11 -42.6
      vertex 27.5 -11 -42.6
    endloop
  endfacet
  facet normal 0 0 1
    outer loop
      vertex -20.036 -1.55885 -42.6
      vertex -27.5 -11 -42.6
      vertex -19.6019 -1.73867 -42.6
    endloop
  endfacet
  facet normal 0 0 1
    outer loop
      vertex -20.4088 -1.27279 -42.6
      vertex -27.5 -11 -42.6
      vertex -20.036 -1.55885 -42.6
    endloop
  endfacet
  facet normal 0 0 1
    outer loop
      vertex -20.6948 -0.9 -42.6
      vertex -27.5 -11 -42.6
      vertex -20.4088 -1.27279 -42.6
    endloop
  endfacet
  facet normal 0 0 1
    outer loop
      vertex -20.8747 -0.465874 -42.6
      vertex -27.5 -11 -42.6
      vertex -20.6948 -0.9 -42.6
    endloop
  endfacet
  facet normal 0 1 -0
    outer loop
      vertex 27.5 -11 -42.6
      vertex -27.5 -11 -22.5
      vertex 27.5 -11 -22.5
    endloop
  endfacet
  facet normal 0 1 0
    outer loop
      vertex -27.5 -11 -22.5
      vertex 27.5 -11 -42.6
      vertex -27.5 -11 -42.6
    endloop
  endfacet
endsolid OpenSCAD_Model
