  0
SECTION
  2
BLOCKS
  0
ENDSEC
  0
SECTION
  2
ENTITIES
  0
LINE
  8
0
 10
2.10991
 20
-42.9482
 11
4.21474
 21
-42.7929
  0
LINE
  8
0
 10
4.21474
 20
-42.7929
 11
6.3094
 21
-42.5346
  0
LINE
  8
0
 10
6.3094
 20
-42.5346
 11
8.38887
 21
-42.1738
  0
LINE
  8
0
 10
8.38887
 20
-42.1738
 11
10.4481
 21
-41.7113
  0
LINE
  8
0
 10
10.4481
 20
-41.7113
 11
12.4822
 21
-41.1484
  0
LINE
  8
0
 10
12.4822
 20
-41.1484
 11
14.4863
 21
-40.4864
  0
LINE
  8
0
 10
14.4863
 20
-40.4864
 11
16.4554
 21
-39.7268
  0
LINE
  8
0
 10
16.4554
 20
-39.7268
 11
18.3849
 21
-38.8715
  0
LINE
  8
0
 10
18.3849
 20
-38.8715
 11
20.2701
 21
-37.9226
  0
LINE
  8
0
 10
20.2701
 20
-37.9226
 11
22.1064
 21
-36.8823
  0
LINE
  8
0
 10
22.1064
 20
-36.8823
 11
23.8895
 21
-35.7532
  0
LINE
  8
0
 10
23.8895
 20
-35.7532
 11
25.6151
 21
-34.5379
  0
LINE
  8
0
 10
25.6151
 20
-34.5379
 11
27.2789
 21
-33.2394
  0
LINE
  8
0
 10
27.2789
 20
-33.2394
 11
28.877
 21
-31.8609
  0
LINE
  8
0
 10
28.877
 20
-31.8609
 11
30.4056
 21
-30.4056
  0
LINE
  8
0
 10
30.4056
 20
-30.4056
 11
31.8609
 21
-28.877
  0
LINE
  8
0
 10
31.8609
 20
-28.877
 11
33.2394
 21
-27.2789
  0
LINE
  8
0
 10
33.2394
 20
-27.2789
 11
34.5379
 21
-25.6151
  0
LINE
  8
0
 10
34.5379
 20
-25.6151
 11
35.7532
 21
-23.8895
  0
LINE
  8
0
 10
35.7532
 20
-23.8895
 11
36.8823
 21
-22.1064
  0
LINE
  8
0
 10
36.8823
 20
-22.1064
 11
37.9226
 21
-20.2701
  0
LINE
  8
0
 10
37.9226
 20
-20.2701
 11
38.8715
 21
-18.3849
  0
LINE
  8
0
 10
38.8715
 20
-18.3849
 11
39.7268
 21
-16.4554
  0
LINE
  8
0
 10
39.7268
 20
-16.4554
 11
40.4864
 21
-14.4863
  0
LINE
  8
0
 10
40.4864
 20
-14.4863
 11
41.1484
 21
-12.4822
  0
LINE
  8
0
 10
41.1484
 20
-12.4822
 11
41.7113
 21
-10.4481
  0
LINE
  8
0
 10
41.7113
 20
-10.4481
 11
42.1738
 21
-8.38887
  0
LINE
  8
0
 10
42.1738
 20
-8.38887
 11
42.5346
 21
-6.3094
  0
LINE
  8
0
 10
42.5346
 20
-6.3094
 11
42.7929
 21
-4.21474
  0
LINE
  8
0
 10
42.7929
 20
-4.21474
 11
42.9482
 21
-2.10991
  0
LINE
  8
0
 10
42.9482
 20
-2.10991
 11
43
 21
0
  0
LINE
  8
0
 10
43
 20
0
 11
42.9482
 21
2.10991
  0
LINE
  8
0
 10
42.9482
 20
2.10991
 11
42.7929
 21
4.21474
  0
LINE
  8
0
 10
42.7929
 20
4.21474
 11
42.5346
 21
6.3094
  0
LINE
  8
0
 10
42.5346
 20
6.3094
 11
42.1738
 21
8.38887
  0
LINE
  8
0
 10
42.1738
 20
8.38887
 11
41.7113
 21
10.4481
  0
LINE
  8
0
 10
41.7113
 20
10.4481
 11
41.1484
 21
12.4822
  0
LINE
  8
0
 10
41.1484
 20
12.4822
 11
40.4864
 21
14.4863
  0
LINE
  8
0
 10
40.4864
 20
14.4863
 11
39.7268
 21
16.4554
  0
LINE
  8
0
 10
39.7268
 20
16.4554
 11
38.8715
 21
18.3849
  0
LINE
  8
0
 10
38.8715
 20
18.3849
 11
37.9226
 21
20.2701
  0
LINE
  8
0
 10
37.9226
 20
20.2701
 11
36.8823
 21
22.1064
  0
LINE
  8
0
 10
36.8823
 20
22.1064
 11
35.7532
 21
23.8895
  0
LINE
  8
0
 10
35.7532
 20
23.8895
 11
34.5379
 21
25.6151
  0
LINE
  8
0
 10
34.5379
 20
25.6151
 11
33.2394
 21
27.2789
  0
LINE
  8
0
 10
33.2394
 20
27.2789
 11
31.8609
 21
28.877
  0
LINE
  8
0
 10
31.8609
 20
28.877
 11
30.4056
 21
30.4056
  0
LINE
  8
0
 10
30.4056
 20
30.4056
 11
28.877
 21
31.8609
  0
LINE
  8
0
 10
28.877
 20
31.8609
 11
27.2789
 21
33.2394
  0
LINE
  8
0
 10
27.2789
 20
33.2394
 11
25.6151
 21
34.5379
  0
LINE
  8
0
 10
25.6151
 20
34.5379
 11
23.8895
 21
35.7532
  0
LINE
  8
0
 10
23.8895
 20
35.7532
 11
22.1064
 21
36.8823
  0
LINE
  8
0
 10
22.1064
 20
36.8823
 11
20.2701
 21
37.9226
  0
LINE
  8
0
 10
20.2701
 20
37.9226
 11
18.3849
 21
38.8715
  0
LINE
  8
0
 10
18.3849
 20
38.8715
 11
16.4554
 21
39.7268
  0
LINE
  8
0
 10
16.4554
 20
39.7268
 11
14.4863
 21
40.4864
  0
LINE
  8
0
 10
14.4863
 20
40.4864
 11
12.4822
 21
41.1484
  0
LINE
  8
0
 10
12.4822
 20
41.1484
 11
10.4481
 21
41.7113
  0
LINE
  8
0
 10
10.4481
 20
41.7113
 11
8.38887
 21
42.1738
  0
LINE
  8
0
 10
8.38887
 20
42.1738
 11
6.3094
 21
42.5346
  0
LINE
  8
0
 10
6.3094
 20
42.5346
 11
4.21474
 21
42.7929
  0
LINE
  8
0
 10
4.21474
 20
42.7929
 11
2.10991
 21
42.9482
  0
LINE
  8
0
 10
2.10991
 20
42.9482
 11
0
 21
43
  0
LINE
  8
0
 10
0
 20
43
 11
-2.10991
 21
42.9482
  0
LINE
  8
0
 10
-2.10991
 20
42.9482
 11
-4.21474
 21
42.7929
  0
LINE
  8
0
 10
-4.21474
 20
42.7929
 11
-6.3094
 21
42.5346
  0
LINE
  8
0
 10
-6.3094
 20
42.5346
 11
-8.38887
 21
42.1738
  0
LINE
  8
0
 10
-8.38887
 20
42.1738
 11
-10.4481
 21
41.7113
  0
LINE
  8
0
 10
-10.4481
 20
41.7113
 11
-12.4822
 21
41.1484
  0
LINE
  8
0
 10
-12.4822
 20
41.1484
 11
-14.4863
 21
40.4864
  0
LINE
  8
0
 10
-14.4863
 20
40.4864
 11
-16.4554
 21
39.7268
  0
LINE
  8
0
 10
-16.4554
 20
39.7268
 11
-18.3849
 21
38.8715
  0
LINE
  8
0
 10
-18.3849
 20
38.8715
 11
-20.2701
 21
37.9226
  0
LINE
  8
0
 10
-20.2701
 20
37.9226
 11
-22.1064
 21
36.8823
  0
LINE
  8
0
 10
-22.1064
 20
36.8823
 11
-23.8895
 21
35.7532
  0
LINE
  8
0
 10
-23.8895
 20
35.7532
 11
-25.6151
 21
34.5379
  0
LINE
  8
0
 10
-25.6151
 20
34.5379
 11
-27.2789
 21
33.2394
  0
LINE
  8
0
 10
-27.2789
 20
33.2394
 11
-28.877
 21
31.8609
  0
LINE
  8
0
 10
-28.877
 20
31.8609
 11
-30.4056
 21
30.4056
  0
LINE
  8
0
 10
-30.4056
 20
30.4056
 11
-31.8609
 21
28.877
  0
LINE
  8
0
 10
-31.8609
 20
28.877
 11
-33.2394
 21
27.2789
  0
LINE
  8
0
 10
-33.2394
 20
27.2789
 11
-34.5379
 21
25.6151
  0
LINE
  8
0
 10
-34.5379
 20
25.6151
 11
-35.7532
 21
23.8895
  0
LINE
  8
0
 10
-35.7532
 20
23.8895
 11
-36.8823
 21
22.1064
  0
LINE
  8
0
 10
-36.8823
 20
22.1064
 11
-37.9226
 21
20.2701
  0
LINE
  8
0
 10
-37.9226
 20
20.2701
 11
-38.8715
 21
18.3849
  0
LINE
  8
0
 10
-38.8715
 20
18.3849
 11
-39.7268
 21
16.4554
  0
LINE
  8
0
 10
-39.7268
 20
16.4554
 11
-40.4864
 21
14.4863
  0
LINE
  8
0
 10
-40.4864
 20
14.4863
 11
-41.1484
 21
12.4822
  0
LINE
  8
0
 10
-41.1484
 20
12.4822
 11
-41.7113
 21
10.4481
  0
LINE
  8
0
 10
-41.7113
 20
10.4481
 11
-42.1738
 21
8.38887
  0
LINE
  8
0
 10
-42.1738
 20
8.38887
 11
-42.5346
 21
6.3094
  0
LINE
  8
0
 10
-42.5346
 20
6.3094
 11
-42.7929
 21
4.21474
  0
LINE
  8
0
 10
-42.7929
 20
4.21474
 11
-42.9482
 21
2.10991
  0
LINE
  8
0
 10
-42.9482
 20
2.10991
 11
-43
 21
0
  0
LINE
  8
0
 10
-43
 20
0
 11
-42.9482
 21
-2.10991
  0
LINE
  8
0
 10
-42.9482
 20
-2.10991
 11
-42.7929
 21
-4.21474
  0
LINE
  8
0
 10
-42.7929
 20
-4.21474
 11
-42.5346
 21
-6.3094
  0
LINE
  8
0
 10
-42.5346
 20
-6.3094
 11
-42.1738
 21
-8.38887
  0
LINE
  8
0
 10
-42.1738
 20
-8.38887
 11
-41.7113
 21
-10.4481
  0
LINE
  8
0
 10
-41.7113
 20
-10.4481
 11
-41.1484
 21
-12.4822
  0
LINE
  8
0
 10
-41.1484
 20
-12.4822
 11
-40.4864
 21
-14.4863
  0
LINE
  8
0
 10
-40.4864
 20
-14.4863
 11
-39.7268
 21
-16.4554
  0
LINE
  8
0
 10
-39.7268
 20
-16.4554
 11
-38.8715
 21
-18.3849
  0
LINE
  8
0
 10
-38.8715
 20
-18.3849
 11
-37.9226
 21
-20.2701
  0
LINE
  8
0
 10
-37.9226
 20
-20.2701
 11
-36.8823
 21
-22.1064
  0
LINE
  8
0
 10
-36.8823
 20
-22.1064
 11
-35.7532
 21
-23.8895
  0
LINE
  8
0
 10
-35.7532
 20
-23.8895
 11
-34.5379
 21
-25.6151
  0
LINE
  8
0
 10
-34.5379
 20
-25.6151
 11
-33.2394
 21
-27.2789
  0
LINE
  8
0
 10
-33.2394
 20
-27.2789
 11
-31.8609
 21
-28.877
  0
LINE
  8
0
 10
-31.8609
 20
-28.877
 11
-30.4056
 21
-30.4056
  0
LINE
  8
0
 10
-30.4056
 20
-30.4056
 11
-28.877
 21
-31.8609
  0
LINE
  8
0
 10
-28.877
 20
-31.8609
 11
-27.2789
 21
-33.2394
  0
LINE
  8
0
 10
-27.2789
 20
-33.2394
 11
-25.6151
 21
-34.5379
  0
LINE
  8
0
 10
-25.6151
 20
-34.5379
 11
-23.8895
 21
-35.7532
  0
LINE
  8
0
 10
-23.8895
 20
-35.7532
 11
-22.1064
 21
-36.8823
  0
LINE
  8
0
 10
-22.1064
 20
-36.8823
 11
-20.2701
 21
-37.9226
  0
LINE
  8
0
 10
-20.2701
 20
-37.9226
 11
-18.3849
 21
-38.8715
  0
LINE
  8
0
 10
-18.3849
 20
-38.8715
 11
-16.4554
 21
-39.7268
  0
LINE
  8
0
 10
-16.4554
 20
-39.7268
 11
-14.4863
 21
-40.4864
  0
LINE
  8
0
 10
-14.4863
 20
-40.4864
 11
-12.4822
 21
-41.1484
  0
LINE
  8
0
 10
-12.4822
 20
-41.1484
 11
-10.4481
 21
-41.7113
  0
LINE
  8
0
 10
-10.4481
 20
-41.7113
 11
-8.38887
 21
-42.1738
  0
LINE
  8
0
 10
-8.38887
 20
-42.1738
 11
-6.3094
 21
-42.5346
  0
LINE
  8
0
 10
-6.3094
 20
-42.5346
 11
-4.21474
 21
-42.7929
  0
LINE
  8
0
 10
-4.21474
 20
-42.7929
 11
-2.10991
 21
-42.9482
  0
LINE
  8
0
 10
-2.10991
 20
-42.9482
 11
0
 21
-43
  0
LINE
  8
0
 10
0
 20
-43
 11
2.10991
 21
-42.9482
  0
LINE
  8
0
 10
-29
 20
-24
 11
-30.1705
 21
-23.8847
  0
LINE
  8
0
 10
-30.1705
 20
-23.8847
 11
-31.2961
 21
-23.5433
  0
LINE
  8
0
 10
-31.2961
 20
-23.5433
 11
-32.3334
 21
-22.9888
  0
LINE
  8
0
 10
-32.3334
 20
-22.9888
 11
-33.2426
 21
-22.2426
  0
LINE
  8
0
 10
-33.2426
 20
-22.2426
 11
-33.9888
 21
-21.3334
  0
LINE
  8
0
 10
-33.9888
 20
-21.3334
 11
-34.5433
 21
-20.2961
  0
LINE
  8
0
 10
-34.5433
 20
-20.2961
 11
-34.8847
 21
-19.1705
  0
LINE
  8
0
 10
-34.8847
 20
-19.1705
 11
-35
 21
-18
  0
LINE
  8
0
 10
-35
 20
-18
 11
-35
 21
10
  0
LINE
  8
0
 10
-35
 20
10
 11
-34.8847
 21
11.1705
  0
LINE
  8
0
 10
-34.8847
 20
11.1705
 11
-34.5433
 21
12.2961
  0
LINE
  8
0
 10
-34.5433
 20
12.2961
 11
-33.9888
 21
13.3334
  0
LINE
  8
0
 10
-33.9888
 20
13.3334
 11
-33.2426
 21
14.2426
  0
LINE
  8
0
 10
-33.2426
 20
14.2426
 11
-32.3334
 21
14.9888
  0
LINE
  8
0
 10
-32.3334
 20
14.9888
 11
-31.2961
 21
15.5433
  0
LINE
  8
0
 10
-31.2961
 20
15.5433
 11
-30.1705
 21
15.8847
  0
LINE
  8
0
 10
-30.1705
 20
15.8847
 11
-29
 21
16
  0
LINE
  8
0
 10
-29
 20
16
 11
29
 21
16
  0
LINE
  8
0
 10
29
 20
16
 11
30.1705
 21
15.8847
  0
LINE
  8
0
 10
30.1705
 20
15.8847
 11
31.2961
 21
15.5433
  0
LINE
  8
0
 10
31.2961
 20
15.5433
 11
32.3334
 21
14.9888
  0
LINE
  8
0
 10
32.3334
 20
14.9888
 11
33.2426
 21
14.2426
  0
LINE
  8
0
 10
33.2426
 20
14.2426
 11
33.9888
 21
13.3334
  0
LINE
  8
0
 10
33.9888
 20
13.3334
 11
34.5433
 21
12.2961
  0
LINE
  8
0
 10
34.5433
 20
12.2961
 11
34.8847
 21
11.1705
  0
LINE
  8
0
 10
34.8847
 20
11.1705
 11
35
 21
10
  0
LINE
  8
0
 10
35
 20
10
 11
35
 21
-18
  0
LINE
  8
0
 10
35
 20
-18
 11
34.8847
 21
-19.1705
  0
LINE
  8
0
 10
34.8847
 20
-19.1705
 11
34.5433
 21
-20.2961
  0
LINE
  8
0
 10
34.5433
 20
-20.2961
 11
33.9888
 21
-21.3334
  0
LINE
  8
0
 10
33.9888
 20
-21.3334
 11
33.2426
 21
-22.2426
  0
LINE
  8
0
 10
33.2426
 20
-22.2426
 11
32.3334
 21
-22.9888
  0
LINE
  8
0
 10
32.3334
 20
-22.9888
 11
31.2961
 21
-23.5433
  0
LINE
  8
0
 10
31.2961
 20
-23.5433
 11
30.1705
 21
-23.8847
  0
LINE
  8
0
 10
30.1705
 20
-23.8847
 11
29
 21
-24
  0
LINE
  8
0
 10
29
 20
-24
 11
-29
 21
-24
  0
ENDSEC
  0
SECTION
  2
OBJECTS
  0
DICTIONARY
  0
ENDSEC
  0
EOF
