<?xml version="1.0" standalone="no"?>
<!DOCTYPE svg PUBLIC "-//W3C//DTD SVG 1.1//EN" "http://www.w3.org/Graphics/SVG/1.1/DTD/svg11.dtd">
<svg width="86mm" height="86mm" viewBox="-43 -43 86 86" xmlns="http://www.w3.org/2000/svg" version="1.1">
<title>OpenSCAD Model</title>
<path d="
M 2.10991,42.9482 L 4.21474,42.7929 L 6.3094,42.5346 L 8.38887,42.1738 L 10.4481,41.7113 L 12.4822,41.1484
 L 14.4863,40.4864 L 16.4554,39.7268 L 18.3849,38.8715 L 20.2701,37.9226 L 22.1064,36.8823 L 23.8895,35.7532
 L 25.6151,34.5379 L 27.2789,33.2394 L 28.877,31.8609 L 30.4056,30.4056 L 31.8609,28.877 L 33.2394,27.2789
 L 34.5379,25.6151 L 35.7532,23.8895 L 36.8823,22.1064 L 37.9226,20.2701 L 38.8715,18.3849 L 39.7268,16.4554
 L 40.4864,14.4863 L 41.1484,12.4822 L 41.7113,10.4481 L 42.1738,8.38887 L 42.5346,6.3094 L 42.7929,4.21474
 L 42.9482,2.10991 L 43,-0 L 42.9482,-2.10991 L 42.7929,-4.21474 L 42.5346,-6.3094 L 42.1738,-8.38887
 L 41.7113,-10.4481 L 41.1484,-12.4822 L 40.4864,-14.4863 L 39.7268,-16.4554 L 38.8715,-18.3849 L 37.9226,-20.2701
 L 36.8823,-22.1064 L 35.7532,-23.8895 L 34.5379,-25.6151 L 33.2394,-27.2789 L 31.8609,-28.877 L 30.4056,-30.4056
 L 28.877,-31.8609 L 27.2789,-33.2394 L 25.6151,-34.5379 L 23.8895,-35.7532 L 22.1064,-36.8823 L 20.2701,-37.9226
 L 18.3849,-38.8715 L 16.4554,-39.7268 L 14.4863,-40.4864 L 12.4822,-41.1484 L 10.4481,-41.7113 L 8.38887,-42.1738
 L 6.3094,-42.5346 L 4.21474,-42.7929 L 2.10991,-42.9482 L 0,-43 L -2.10991,-42.9482 L -4.21474,-42.7929
 L -6.3094,-42.5346 L -8.38887,-42.1738 L -10.4481,-41.7113 L -12.4822,-41.1484 L -14.4863,-40.4864 L -16.4554,-39.7268
 L -18.3849,-38.8715 L -20.2701,-37.9226 L -22.1064,-36.8823 L -23.8895,-35.7532 L -25.6151,-34.5379 L -27.2789,-33.2394
 L -28.877,-31.8609 L -30.4056,-30.4056 L -31.8609,-28.877 L -33.2394,-27.2789 L -34.5379,-25.6151 L -35.7532,-23.8895
 L -36.8823,-22.1064 L -37.9226,-20.2701 L -38.8715,-18.3849 L -39.7268,-16.4554 L -40.4864,-14.4863 L -41.1484,-12.4822
 L -41.7113,-10.4481 L -42.1738,-8.38887 L -42.5346,-6.3094 L -42.7929,-4.21474 L -42.9482,-2.10991 L -43,-0
 L -42.9482,2.10991 L -42.7929,4.21474 L -42.5346,6.3094 L -42.1738,8.38887 L -41.7113,10.4481 L -41.1484,12.4822
 L -40.4864,14.4863 L -39.7268,16.4554 L -38.8715,18.3849 L -37.9226,20.2701 L -36.8823,22.1064 L -35.7532,23.8895
 L -34.5379,25.6151 L -33.2394,27.2789 L -31.8609,28.877 L -30.4056,30.4056 L -28.877,31.8609 L -27.2789,33.2394
 L -25.6151,34.5379 L -23.8895,35.7532 L -22.1064,36.8823 L -20.2701,37.9226 L -18.3849,38.8715 L -16.4554,39.7268
 L -14.4863,40.4864 L -12.4822,41.1484 L -10.4481,41.7113 L -8.38887,42.1738 L -6.3094,42.5346 L -4.21474,42.7929
 L -2.10991,42.9482 L 0,43 z
M -29,24 L -30.1705,23.8847 L -31.2961,23.5433 L -32.3334,22.9888 L -33.2426,22.2426 L -33.9888,21.3334
 L -34.5433,20.2961 L -34.8847,19.1705 L -35,18 L -35,-10 L -34.8847,-11.1705 L -34.5433,-12.2961
 L -33.9888,-13.3334 L -33.2426,-14.2426 L -32.3334,-14.9888 L -31.2961,-15.5433 L -30.1705,-15.8847 L -29,-16
 L 29,-16 L 30.1705,-15.8847 L 31.2961,-15.5433 L 32.3334,-14.9888 L 33.2426,-14.2426 L 33.9888,-13.3334
 L 34.5433,-12.2961 L 34.8847,-11.1705 L 35,-10 L 35,18 L 34.8847,19.1705 L 34.5433,20.2961
 L 33.9888,21.3334 L 33.2426,22.2426 L 32.3334,22.9888 L 31.2961,23.5433 L 30.1705,23.8847 L 29,24
 z
" stroke="black" fill="lightgray" stroke-width="0.5"/>
</svg>
